<svg xmlns="http://www.w3.org/2000/svg" width="88" height="88" fill="none"><g><title>background</title><rect id="canvas_background" width="1127" height="624" x="-1" y="-1" fill="none"/></g><g><title>合肥工业大学校徽</title><ellipse id="svg_12" cx="44" cy="44" fill="#fff" stroke="#000" stroke-width="0" rx="44" ry="44"/><path id="svg_1" fill="#1B1918" fill-rule="evenodd" d="m49.1203,79.3088c0.1545,0.1368 0.2814,0.3069 0.3789,0.5111c0.0982,0.2031 0.1573,0.4329 0.1786,0.6879c0.0212,0.2565 0,0.493 -0.0647,0.709c-0.0642,0.2168 -0.1636,0.4043 -0.2966,0.5641c-0.1294,0.1569 -0.2841,0.2834 -0.4641,0.3774c-0.18,0.0947 -0.3757,0.151 -0.5871,0.1685c-0.2247,0.0186 -0.4359,-0.0068 -0.6332,-0.075c-0.1974,-0.0679 -0.3705,-0.1717 -0.5199,-0.3111c-0.149,-0.1356 -0.2711,-0.3054 -0.3672,-0.5095c-0.0951,-0.2034 -0.1535,-0.4256 -0.1734,-0.665c-0.0218,-0.2628 -0.0002,-0.5002 0.0651,-0.7131c0.0644,-0.2127 0.1632,-0.4002 0.2945,-0.5621c0.1305,-0.1604 0.2868,-0.2883 0.4691,-0.3834c0.1823,-0.0942 0.3772,-0.1504 0.5832,-0.1675c0.2146,-0.0179 0.42,0.0058 0.6164,0.0701c0.1963,0.0651 0.3697,0.1641 0.5204,0.2986zm27.6609,-22.1872c-0.0096,0.0248 -0.0169,0.0657 -0.023,0.125c-0.0054,0.0588 -0.005,0.1034 0.0021,0.1326c0.0091,0.0687 0.018,0.117 0.0278,0.1444c0.0091,0.027 0.0389,0.0856 0.0904,0.1751c0.1034,0.1768 0.2122,0.3449 0.3274,0.5066c0.1152,0.1614 0.2621,0.3648 0.4408,0.6102c0.0654,0.0907 0.1209,0.1566 0.1682,0.1974c0.0459,0.0411 0.1203,0.0839 0.2229,0.1302l0.5615,0.2528c0.0496,0.0224 0.0972,0.0319 0.1429,0.0287c0.0449,-0.0035 0.0902,-0.0247 0.1338,-0.063c0.0245,-0.024 0.0613,-0.0695 0.1105,-0.1376c0.0498,-0.0669 0.0852,-0.1231 0.1075,-0.1685l0.1471,0.0662l-0.6201,1.3766l-0.147,-0.0663c0.0145,-0.0402 0.0358,-0.1004 0.0632,-0.1817c0.0268,-0.0807 0.0412,-0.1388 0.0429,-0.1747c0,-0.0591 -0.0115,-0.1064 -0.0394,-0.1411c-0.0271,-0.0342 -0.0672,-0.0643 -0.1196,-0.0879l-0.7153,-0.3221c-0.0217,-0.0098 -0.0681,-0.0145 -0.139,-0.0141c-0.0711,0.0011 -0.1513,0.0034 -0.2396,0.0086c-0.1979,0.0105 -0.4126,0.0245 -0.6436,0.0411c-0.2324,0.017 -0.4319,0.0328 -0.5976,0.0475c-0.0999,0.0102 -0.1767,0.024 -0.2331,0.0413c-0.0561,0.0174 -0.1097,0.0417 -0.1606,0.0732c-0.0354,0.0241 -0.0688,0.0566 -0.1011,0.0983c-0.0321,0.0408 -0.0572,0.0797 -0.0769,0.1158l-0.1472,-0.0664l0.5647,-1.2539l0.1474,0.0662c-0.061,0.1427 -0.0964,0.246 -0.1055,0.3116c-0.0097,0.0654 0,0.1048 0.0306,0.1185c0.0087,0.004 0.0254,0.0064 0.0495,0.0078c0.0244,0.0007 0.0559,0.0004 0.0943,-0.0001c0.0441,-0.0013 0.095,-0.0049 0.1529,-0.0086c0.0571,-0.0041 0.1123,-0.0072 0.1651,-0.0098c0.1518,-0.01 0.3049,-0.0209 0.4578,-0.0339c0.1519,-0.0125 0.351,-0.0291 0.5969,-0.0502c-0.2519,-0.3737 -0.4504,-0.6623 -0.5944,-0.8641c-0.1439,-0.2017 -0.2356,-0.3119 -0.2744,-0.3295c-0.0312,-0.014 -0.0627,-0.0138 -0.0924,0.0011c-0.0296,0.0146 -0.0592,0.0389 -0.0872,0.0729c-0.0293,0.0345 -0.056,0.0752 -0.0806,0.1203c-0.0249,0.0457 -0.0479,0.0873 -0.0703,0.1259l-0.1472,-0.0664l0.4604,-1.0222l0.1465,0.0662zm0.338,3.565c-0.0132,0.0346 -0.0301,0.0811 -0.0506,0.14c-0.0208,0.0588 -0.0321,0.1093 -0.0335,0.1517c-0.0022,0.0512 0.0119,0.0948 0.039,0.1315c0.0281,0.0364 0.0669,0.0678 0.1165,0.0944l0.2216,0.1191c0.1605,0.0861 0.2692,0.1437 0.3267,0.1721c0.0573,0.028 0.105,0.0511 0.1424,0.0675c-0.015,0.2219 -0.049,0.4316 -0.101,0.6319c-0.0525,0.2001 -0.1238,0.3854 -0.2152,0.5556c-0.098,0.1825 -0.2264,0.339 -0.3855,0.471c-0.1592,0.133 -0.3354,0.2274 -0.5295,0.2859c-0.1956,0.0595 -0.4049,0.0771 -0.6268,0.0542c-0.2231,-0.0226 -0.4469,-0.0949 -0.6719,-0.2158c-0.2171,-0.1167 -0.3996,-0.2607 -0.5464,-0.4315c-0.1473,-0.172 -0.254,-0.3602 -0.3202,-0.5646c-0.0653,-0.1996 -0.0879,-0.4071 -0.0675,-0.6235c0.0201,-0.2165 0.0839,-0.4244 0.1919,-0.6254c0.0866,-0.1612 0.1811,-0.291 0.2844,-0.3894c0.1033,-0.0984 0.2062,-0.1783 0.3102,-0.24l-0.0924,-0.1558l0.0864,-0.1606l1.007,0.517l-0.0888,0.1656c-0.1249,-0.031 -0.2523,-0.0542 -0.3806,-0.0701c-0.1296,-0.0156 -0.2537,-0.0133 -0.3732,0.0064c-0.1197,0.0207 -0.2302,0.0647 -0.331,0.1325c-0.1006,0.0671 -0.1869,0.1668 -0.2574,0.2979c-0.0769,0.1434 -0.1172,0.2871 -0.1193,0.4309c-0.0021,0.1439 0.0328,0.2883 0.1034,0.4332c0.067,0.142 0.1721,0.279 0.3141,0.4127c0.1426,0.1332 0.3163,0.2557 0.5215,0.3661c0.1804,0.0968 0.3632,0.1667 0.5467,0.2086c0.1838,0.0431 0.3556,0.054 0.5173,0.033c0.164,-0.019 0.3136,-0.072 0.4494,-0.16c0.1345,-0.0877 0.2448,-0.2106 0.33,-0.3692c0.0634,-0.1181 0.1031,-0.2347 0.1189,-0.3517c0.016,-0.117 0.0145,-0.2062 -0.0039,-0.2674c-0.0642,-0.0486 -0.1312,-0.0916 -0.2022,-0.1309c-0.0704,-0.0383 -0.1304,-0.0715 -0.1798,-0.0981l-0.1571,-0.0844c-0.0563,-0.0303 -0.1107,-0.0489 -0.162,-0.0571c-0.0525,-0.0077 -0.101,0.0068 -0.1467,0.0443c-0.0445,0.0334 -0.0918,0.085 -0.1419,0.1553c-0.0513,0.0707 -0.0891,0.1264 -0.1151,0.1681l-0.1468,-0.0789l0.672,-1.251l0.1469,0.0789zm-3.2908,2.6173c0.2034,-0.034 0.4155,-0.0256 0.6356,0.0272c0.2197,0.0515 0.4354,0.1502 0.6471,0.2941c0.2126,0.1448 0.3833,0.31 0.5102,0.4965c0.1281,0.1862 0.2112,0.3815 0.2517,0.5855c0.0406,0.1992 0.0415,0.399 0.0022,0.5981c-0.0397,0.1995 -0.1191,0.387 -0.2385,0.5623c-0.127,0.1863 -0.2796,0.3345 -0.4568,0.4449c-0.177,0.1106 -0.3666,0.1799 -0.5689,0.2082c-0.1992,0.0306 -0.4081,0.0186 -0.6271,-0.0352c-0.2179,-0.0541 -0.4274,-0.1486 -0.6259,-0.2837c-0.218,-0.1485 -0.3888,-0.3147 -0.5132,-0.4995c-0.1248,-0.1838 -0.2084,-0.3786 -0.2516,-0.5825c-0.0424,-0.2024 -0.0436,-0.4043 -0.0026,-0.606c0.0415,-0.2009 0.1205,-0.3877 0.2368,-0.5585c0.1212,-0.1781 0.2689,-0.3228 0.4425,-0.4349c0.174,-0.1116 0.3601,-0.1841 0.5595,-0.2165l-0.001,0zm1.7083,1.5755c-0.0668,-0.1484 -0.1614,-0.2882 -0.2838,-0.4188c-0.1231,-0.131 -0.2744,-0.2566 -0.453,-0.3783c-0.1839,-0.1249 -0.3646,-0.2227 -0.5426,-0.2909c-0.1788,-0.069 -0.3453,-0.1059 -0.5009,-0.1098c-0.154,-0.0039 -0.2965,0.0265 -0.4275,0.0902c-0.1312,0.0637 -0.2425,0.1633 -0.3342,0.2979c-0.1027,0.1511 -0.1552,0.3031 -0.1582,0.4557c-0.003,0.1529 0.0312,0.3025 0.1016,0.4486c0.0681,0.138 0.1657,0.2731 0.2931,0.4051c0.1278,0.1324 0.2733,0.2542 0.4371,0.3655c0.1811,0.1233 0.3563,0.2181 0.5244,0.2843c0.1684,0.0674 0.3331,0.1041 0.4949,0.1105c0.1568,0.0079 0.3017,-0.0191 0.4345,-0.08c0.1326,-0.0604 0.248,-0.1633 0.3454,-0.3064c0.0916,-0.1347 0.1431,-0.278 0.1536,-0.4294c0.0112,-0.1509 -0.0169,-0.2994 -0.0844,-0.4442zm-1.8075,1.9255l0.6875,0.6713l-1.6277,1.9233l-0.1232,-0.1042c0.0212,-0.0298 0.051,-0.0736 0.0897,-0.1313c0.0394,-0.0572 0.0627,-0.1004 0.0708,-0.1292c0.0143,-0.0468 0.0138,-0.0908 -0.0022,-0.1308c-0.0155,-0.0404 -0.0456,-0.0792 -0.0906,-0.1173l-1.7623,-1.4916c-0.039,-0.0332 -0.0795,-0.0561 -0.1212,-0.068c-0.0412,-0.0126 -0.0881,-0.0066 -0.1395,0.017c-0.0362,0.0152 -0.0814,0.041 -0.1354,0.0775c-0.0536,0.0369 -0.095,0.0699 -0.1239,0.0993l-0.1232,-0.1043l0.8793,-1.039l0.1232,0.1044c-0.0264,0.0336 -0.0561,0.0795 -0.0891,0.1401c-0.0329,0.0605 -0.0555,0.1053 -0.0667,0.1352c-0.0201,0.0512 -0.019,0.098 0.0022,0.1414c0.0217,0.0428 0.0513,0.0799 0.0898,0.1125l1.6527,1.3989c0.0763,0.0646 0.1385,0.1111 0.187,0.139c0.0485,0.0281 0.0957,0.0384 0.1429,0.0306c0.0432,-0.0092 0.0904,-0.0373 0.1409,-0.085c0.0512,-0.0472 0.1162,-0.1181 0.1965,-0.2127c0.0365,-0.0433 0.0735,-0.0882 0.1102,-0.1363c0.0368,-0.0482 0.069,-0.0959 0.0976,-0.1441c0.0269,-0.0462 0.049,-0.0916 0.0662,-0.1359c0.0162,-0.0442 0.0223,-0.0828 0.0175,-0.1143c-0.0132,-0.0925 -0.0472,-0.2158 -0.1013,-0.3701c-0.0552,-0.1545 -0.1058,-0.2725 -0.1521,-0.3533l0.1044,-0.1231zm-3.6153,1.3646c0.2062,0.0054 0.4128,0.0542 0.6188,0.148c0.2057,0.0924 0.3987,0.2305 0.579,0.4121c0.1811,0.1828 0.3171,0.3775 0.4062,0.5847c0.0901,0.2074 0.1344,0.4149 0.1354,0.6228c0.0021,0.2034 -0.0356,0.3998 -0.113,0.5875c-0.077,0.1882 -0.1908,0.3571 -0.3414,0.5064c-0.1602,0.1587 -0.3383,0.275 -0.5333,0.3495c-0.1949,0.0749 -0.3942,0.1067 -0.5982,0.096c-0.2013,-0.0082 -0.4041,-0.0598 -0.6088,-0.1543c-0.2037,-0.0947 -0.3912,-0.2274 -0.5603,-0.398c-0.1856,-0.1873 -0.3216,-0.3831 -0.4085,-0.5882c-0.0874,-0.2043 -0.1323,-0.4114 -0.1357,-0.6198c-0.0031,-0.2068 0.0343,-0.4052 0.1129,-0.5953c0.079,-0.1893 0.1922,-0.3577 0.3391,-0.5032c0.1529,-0.1516 0.3255,-0.2655 0.5173,-0.3425c0.1921,-0.0763 0.3886,-0.1119 0.5905,-0.1057zm1.3764,1.8725c-0.0373,-0.1584 -0.1035,-0.3136 -0.1988,-0.4652c-0.0958,-0.1521 -0.2203,-0.3043 -0.3725,-0.4578c-0.1566,-0.1577 -0.3154,-0.2882 -0.477,-0.3891c-0.1624,-0.1017 -0.3188,-0.1698 -0.4709,-0.2034c-0.1503,-0.0331 -0.296,-0.0305 -0.4368,0.007c-0.1409,0.0375 -0.2692,0.1141 -0.3848,0.2287c-0.1298,0.1287 -0.2103,0.2678 -0.2423,0.4172c-0.0321,0.1495 -0.0272,0.3028 0.0141,0.4596c0.0406,0.1485 0.1105,0.2999 0.2104,0.4536c0.1002,0.1544 0.2198,0.3017 0.3594,0.4423c0.1542,0.1556 0.3081,0.282 0.4605,0.3791c0.1524,0.0983 0.3071,0.1657 0.4647,0.2029c0.1524,0.0376 0.2998,0.0388 0.4418,0.0044c0.1417,-0.034 0.2746,-0.113 0.3975,-0.2349c0.1156,-0.1147 0.1935,-0.2456 0.2328,-0.3922c0.0397,-0.1459 0.0402,-0.2971 0.0019,-0.4522zm-3.5112,-0.0366c-0.0312,0.0283 -0.0727,0.0785 -0.1236,0.152c-0.0516,0.0726 -0.0845,0.1306 -0.0973,0.1724c-0.0173,0.0637 0.0022,0.1417 0.0567,0.2346c0.0536,0.0928 0.1335,0.2012 0.2388,0.3254l1.5043,1.7741l-0.1486,0.1259l-3.1489,-0.7372l1.0596,1.2497c0.1185,0.1399 0.2188,0.2401 0.3001,0.3005c0.0812,0.0604 0.154,0.0907 0.2168,0.0915c0.0475,0.0029 0.1216,-0.0197 0.2214,-0.0674c0.101,-0.0474 0.1645,-0.0823 0.1918,-0.1034l0.1027,0.1211l-0.9937,0.8427l-0.1027,-0.1213c0.0283,-0.0279 0.0707,-0.083 0.1268,-0.1646c0.0559,-0.0816 0.0863,-0.1384 0.0914,-0.1697c0.0125,-0.0658 -0.0022,-0.1379 -0.0424,-0.2155c-0.0402,-0.0781 -0.1282,-0.1959 -0.2625,-0.3545l-1.0116,-1.1931c-0.0446,-0.0524 -0.0976,-0.0974 -0.1608,-0.1341c-0.0625,-0.0372 -0.1211,-0.0566 -0.1762,-0.059c-0.0725,-0.0025 -0.1555,0.0118 -0.2483,0.0441c-0.0921,0.0333 -0.1609,0.0665 -0.2067,0.1012l-0.1027,-0.1213l0.6918,-0.5865l2.9291,0.6922l-0.9774,-1.1529c-0.1197,-0.1411 -0.2209,-0.2415 -0.3032,-0.3019c-0.0822,-0.0605 -0.1509,-0.0885 -0.2065,-0.0843c-0.0505,0.0055 -0.1202,0.0287 -0.2102,0.069c-0.0897,0.0408 -0.1537,0.0762 -0.1936,0.106l-0.1029,-0.1214l0.9857,-0.8357l0.1028,0.1214zm-1.0299,4.8947l-1.1141,0.7731l-0.0932,-0.1344c0.0285,-0.0235 0.0698,-0.0579 0.1237,-0.1028c0.0543,-0.0446 0.0882,-0.0795 0.1023,-0.1046c0.0279,-0.0413 0.0395,-0.0838 0.0355,-0.127c-0.0041,-0.0429 -0.0228,-0.0893 -0.0569,-0.1384l-0.6624,-0.9547l-1.2613,0.8753l0.6479,0.934c0.0306,0.044 0.0635,0.0766 0.0989,0.097c0.0359,0.0199 0.0826,0.0267 0.1417,0.0194c0.0292,-0.0032 0.075,-0.0187 0.138,-0.0451c0.0624,-0.0272 0.1102,-0.0508 0.1426,-0.0714l0.0933,0.1343l-1.1143,0.7729l-0.0931,-0.1341c0.0285,-0.0236 0.0697,-0.0579 0.1236,-0.1031c0.0543,-0.0442 0.0884,-0.0794 0.1025,-0.1045c0.027,-0.0407 0.0388,-0.0833 0.0352,-0.1269c-0.0039,-0.043 -0.0227,-0.0893 -0.0567,-0.1383l-1.3438,-1.9366c-0.0279,-0.0401 -0.0617,-0.071 -0.101,-0.0935c-0.0402,-0.0218 -0.0866,-0.028 -0.14,-0.0195c-0.0454,0.0076 -0.0969,0.0214 -0.1539,0.0427c-0.0574,0.0207 -0.1043,0.0428 -0.1416,0.0647l-0.0932,-0.1342l1.1142,-0.7733l0.0933,0.1345c-0.0346,0.0258 -0.0739,0.0616 -0.1181,0.1067c-0.0438,0.0458 -0.0757,0.0812 -0.0947,0.1077c-0.0325,0.0456 -0.0433,0.0904 -0.0341,0.1356c0.0104,0.0455 0.0303,0.0891 0.0589,0.1304l0.5773,0.8321l1.2615,-0.8753l-0.5644,-0.8134c-0.0278,-0.04 -0.0618,-0.0709 -0.1013,-0.0934c-0.04,-0.0218 -0.0862,-0.028 -0.1397,-0.0193c-0.0453,0.0074 -0.0971,0.0212 -0.154,0.0424c-0.0574,0.0209 -0.1042,0.0427 -0.1414,0.0649l-0.0932,-0.1345l1.1141,-0.7729l0.0931,0.1344c-0.0345,0.0258 -0.0738,0.0617 -0.118,0.1068c-0.0438,0.0456 -0.0758,0.0809 -0.0946,0.1075c-0.0325,0.0454 -0.0434,0.0905 -0.0334,0.1352c0.0099,0.0458 0.0295,0.0896 0.0582,0.1308l1.3424,1.9348c0.0304,0.0437 0.0635,0.0762 0.0996,0.0963c0.0351,0.0205 0.0817,0.0273 0.1407,0.0198c0.0294,-0.0031 0.075,-0.0186 0.1381,-0.045c0.0625,-0.0271 0.1103,-0.0507 0.1427,-0.0713l0.0931,0.1342zm-6.4081,2.7459l0.3418,0.8873l-2.4277,1.1195l-0.0675,-0.1462c0.0404,-0.0221 0.0926,-0.053 0.1566,-0.0936c0.0648,-0.0408 0.1048,-0.0705 0.1217,-0.0894c0.034,-0.0411 0.0525,-0.0822 0.0542,-0.1232c0.0026,-0.041 -0.0082,-0.0864 -0.0316,-0.1371l-0.9697,-2.1025c-0.0206,-0.0451 -0.0471,-0.0816 -0.078,-0.1101c-0.0315,-0.028 -0.0762,-0.0414 -0.1344,-0.0418c-0.0456,-0.0007 -0.103,0.0064 -0.1717,0.0218c-0.069,0.0147 -0.1219,0.0299 -0.1606,0.0443l-0.0673,-0.1465l2.2629,-1.0435l0.3251,0.705l-0.1549,0.0712c-0.0758,-0.0922 -0.1865,-0.175 -0.3314,-0.2506c-0.1456,-0.0752 -0.2626,-0.0998 -0.3497,-0.0722c-0.0455,0.014 -0.0982,0.0331 -0.1584,0.0576c-0.0604,0.0244 -0.1279,0.0538 -0.204,0.0888l-0.4594,0.2118l0.5363,1.1628l0.3299,-0.1521c0.1054,-0.0486 0.1781,-0.0948 0.2176,-0.1371c0.0393,-0.042 0.0666,-0.0956 0.0825,-0.1591c0.0119,-0.054 0.0134,-0.1189 0.0037,-0.1953c-0.0098,-0.0766 -0.0245,-0.1459 -0.0448,-0.208l0.1548,-0.0715l0.5273,1.1439l-0.1547,0.0713c-0.036,-0.0634 -0.0829,-0.1261 -0.141,-0.1892c-0.0575,-0.062 -0.1075,-0.1038 -0.1488,-0.1248c-0.0669,-0.0342 -0.1316,-0.047 -0.1933,-0.0381c-0.0617,0.0089 -0.138,0.0339 -0.2266,0.0747l-0.3298,0.1521l0.4048,0.8779c0.0405,0.0879 0.0791,0.1547 0.1143,0.1997c0.036,0.045 0.0778,0.0726 0.1256,0.082c0.047,0.0098 0.1041,0.0041 0.1698,-0.0169c0.065,-0.0214 0.1549,-0.0579 0.2688,-0.1103c0.0451,-0.0208 0.1048,-0.0484 0.1793,-0.0827c0.0739,-0.0342 0.1352,-0.0658 0.1834,-0.0948c0.0493,-0.0296 0.099,-0.0644 0.1481,-0.1042c0.0489,-0.0404 0.0791,-0.0782 0.0917,-0.1139c0.032,-0.0949 0.0527,-0.2256 0.0602,-0.3909c0.0075,-0.1667 0.0067,-0.2854 -0.0037,-0.3577l0.1486,-0.0684zm-3.2568,-0.0484l-0.1488,0.0535c-0.0319,-0.0474 -0.0767,-0.1004 -0.1363,-0.1596c-0.0592,-0.0585 -0.1211,-0.1129 -0.1858,-0.161c-0.0672,-0.0507 -0.1349,-0.0912 -0.2037,-0.123c-0.0685,-0.0311 -0.1281,-0.0421 -0.1785,-0.0315c-0.0462,0.0099 -0.1037,0.0257 -0.1726,0.047c-0.0687,0.0215 -0.1319,0.0424 -0.1893,0.063l-0.1252,0.0449l0.8793,2.4482c0.0171,0.0478 0.043,0.0874 0.0773,0.1203c0.0339,0.0319 0.0803,0.0501 0.1388,0.0532c0.0294,0.0011 0.0878,-0.0051 0.1775,-0.0172c0.0885,-0.0127 0.1561,-0.0263 0.203,-0.0413l0.055,0.1531l-1.4453,0.5191l-0.055,-0.1531c0.0394,-0.0175 0.0983,-0.0454 0.1787,-0.0835c0.0792,-0.0383 0.132,-0.0697 0.1591,-0.0936c0.041,-0.0363 0.066,-0.0754 0.0762,-0.1187c0.0093,-0.0435 0.0034,-0.0944 -0.0178,-0.1534l-0.8864,-2.468l-0.125,0.0449c-0.045,0.0161 -0.0997,0.0376 -0.1652,0.0636c-0.0649,0.0256 -0.1263,0.0528 -0.1843,0.0819c-0.0455,0.0231 -0.0849,0.0687 -0.1175,0.1378c-0.0322,0.0697 -0.0587,0.1441 -0.079,0.2245c-0.0201,0.0804 -0.0331,0.1624 -0.0401,0.2471c-0.0069,0.0847 -0.0082,0.1527 -0.0043,0.2053l-0.1509,0.0541l-0.2985,-0.8305l2.6663,-0.9575l0.2983,0.8304zm-4.911,1.5346l-0.1673,0.0301c-0.0524,-0.1114 -0.1397,-0.226 -0.2626,-0.3414c-0.123,-0.1159 -0.2315,-0.1724 -0.3243,-0.1691c-0.0468,0.0022 -0.1024,0.0075 -0.1662,0.0159c-0.0636,0.0082 -0.1355,0.0196 -0.2159,0.0341l-0.5303,0.0957l0.2294,1.2704l0.3627,-0.0654c0.1104,-0.0198 0.1936,-0.0466 0.2502,-0.0804c0.0566,-0.0347 0.1028,-0.0792 0.1368,-0.134c0.0239,-0.0381 0.042,-0.0939 0.0537,-0.1675c0.0121,-0.0738 0.0147,-0.1504 0.008,-0.2308l0.1696,-0.0305l0.2241,1.2413l-0.1698,0.0305c-0.0162,-0.0644 -0.0446,-0.1356 -0.0856,-0.2146c-0.0409,-0.0782 -0.0798,-0.1332 -0.1163,-0.1651c-0.054,-0.0468 -0.1172,-0.0747 -0.1885,-0.0822c-0.0713,-0.0076 -0.1545,-0.0035 -0.2495,0.0136l-0.363,0.0655l0.1968,1.0901c0.0088,0.0493 0.0258,0.0912 0.0525,0.1265c0.0262,0.0353 0.0659,0.0602 0.1197,0.0749c0.0241,0.0067 0.0741,0.0101 0.1514,0.0119c0.0772,0.0011 0.135,-0.0006 0.174,-0.0062l0.0285,0.1582l-1.3708,0.2475l-0.0285,-0.1582c0.0444,-0.0112 0.1028,-0.0265 0.1754,-0.0466c0.0733,-0.0204 0.1198,-0.0374 0.1406,-0.0522c0.0407,-0.027 0.0681,-0.0618 0.0812,-0.1034c0.0136,-0.041 0.0153,-0.0885 0.0056,-0.1424l-0.4118,-2.282c-0.0089,-0.0488 -0.0251,-0.0908 -0.0479,-0.1257c-0.0236,-0.0352 -0.0633,-0.0595 -0.1194,-0.0743c-0.0439,-0.012 -0.101,-0.0196 -0.1713,-0.0219c-0.0704,-0.003 -0.1253,-0.0015 -0.1661,0.0025l-0.0286,-0.1582l2.4807,-0.4478l0.1428,0.7912zm-13.6397,3.0285l-1.4413,-0.1834l0.0203,-0.16c0.0412,0.0021 0.1001,0.0049 0.1779,0.0085c0.0777,0.0044 0.1329,0.0019 0.1658,-0.0063c0.0518,-0.0131 0.0913,-0.0353 0.1188,-0.0662c0.0265,-0.031 0.0432,-0.0767 0.051,-0.1365l0.2948,-2.318c0.0067,-0.0523 0.0046,-0.0971 -0.0077,-0.1346c-0.0117,-0.0375 -0.0472,-0.0717 -0.1057,-0.1041c-0.0432,-0.0236 -0.0973,-0.0476 -0.1636,-0.0726c-0.0666,-0.024 -0.1215,-0.0404 -0.1651,-0.049l0.0204,-0.1602l1.4413,0.1834l-0.0205,0.1601c-0.0471,-0.0045 -0.103,-0.006 -0.169,-0.0043c-0.0658,0.0011 -0.1238,0.0071 -0.174,0.0154c-0.0594,0.0111 -0.1016,0.0355 -0.126,0.0731c-0.025,0.0383 -0.04,0.0825 -0.0463,0.1317l-0.2946,2.3154c-0.0063,0.0494 0,0.0947 0.0155,0.136c0.0167,0.0411 0.0505,0.0767 0.0999,0.1056c0.0302,0.0162 0.08,0.036 0.1497,0.0588c0.0691,0.0236 0.1288,0.0392 0.1787,0.0471l-0.0203,0.1601zm-7.4673,-2.8271l-0.4022,0.8616l-2.4901,-0.9727l0.0586,-0.15c0.0438,0.0137 0.1023,0.0299 0.1759,0.0479c0.0744,0.0183 0.1235,0.0266 0.1489,0.0257c0.0531,-0.0041 0.0955,-0.0192 0.1262,-0.0465c0.0314,-0.0265 0.0566,-0.0659 0.0769,-0.1178l0.8424,-2.1568c0.0181,-0.046 0.0261,-0.0904 0.0251,-0.1324c-0.0021,-0.0422 -0.023,-0.0837 -0.063,-0.1259c-0.0312,-0.0332 -0.076,-0.0698 -0.1348,-0.1086c-0.0584,-0.0395 -0.1061,-0.0671 -0.1432,-0.085l0.0588,-0.15l2.3211,0.9066l-0.2824,0.7231l-0.1588,-0.0621c0.0138,-0.1185 -0.0033,-0.2558 -0.0493,-0.4126c-0.0468,-0.157 -0.1102,-0.2584 -0.1904,-0.302c-0.0417,-0.023 -0.092,-0.0478 -0.1514,-0.0742c-0.0595,-0.0266 -0.1275,-0.0549 -0.2054,-0.0854l-0.4712,-0.184l-0.4658,1.1927l0.3383,0.1322c0.1081,0.0422 0.1918,0.0625 0.2496,0.0617c0.0576,-0.0009 0.1151,-0.0183 0.1719,-0.0509c0.0471,-0.0289 0.095,-0.0727 0.1433,-0.1327c0.0485,-0.0601 0.0881,-0.1188 0.1189,-0.1765l0.1588,0.062l-0.4584,1.1731l-0.1588,-0.062c0.0208,-0.07 0.0335,-0.1472 0.0386,-0.2328c0.005,-0.0844 0,-0.1495 -0.0132,-0.1937c-0.0218,-0.0719 -0.0574,-0.1274 -0.1066,-0.1657c-0.0491,-0.0383 -0.1201,-0.0759 -0.2109,-0.1115l-0.3384,-0.1321l-0.3517,0.9005c-0.0353,0.0901 -0.0566,0.1642 -0.0647,0.2208c-0.0073,0.0571 0.0022,0.1064 0.028,0.1473c0.0256,0.0407 0.0693,0.0779 0.13,0.1106c0.0605,0.0321 0.1491,0.0715 0.2659,0.1172c0.0462,0.0181 0.1076,0.042 0.184,0.0719c0.0758,0.0295 0.1411,0.0518 0.1954,0.0663c0.0555,0.0151 0.1151,0.0268 0.1777,0.0345c0.063,0.0072 0.1113,0.0028 0.1457,-0.0129c0.0906,-0.0428 0.1992,-0.1185 0.3235,-0.2278c0.1252,-0.1101 0.2102,-0.1931 0.2551,-0.2506l0.1521,0.0595zm-6.3365,-1.8087l-1.2585,-0.7262l0.0807,-0.1397c0.0371,0.0179 0.0904,0.0432 0.1607,0.0765c0.07,0.0342 0.1219,0.0533 0.1555,0.0584c0.0527,0.0079 0.0978,0.0027 0.1351,-0.0152c0.0364,-0.0182 0.0695,-0.054 0.0998,-0.1062l1.1678,-2.0239c0.0263,-0.0457 0.0416,-0.0878 0.0448,-0.1271c0.0037,-0.0391 -0.0158,-0.0844 -0.0573,-0.1369c-0.0307,-0.0384 -0.0713,-0.0814 -0.1228,-0.1302c-0.0521,-0.0479 -0.0964,-0.0842 -0.1332,-0.109l0.0807,-0.1399l1.2584,0.7262l-0.0808,0.1399c-0.0416,-0.0224 -0.0926,-0.0454 -0.1541,-0.0694c-0.0612,-0.0244 -0.1169,-0.0413 -0.1665,-0.0531c-0.059,-0.0126 -0.1074,-0.0064 -0.1444,0.0189c-0.0379,0.0256 -0.0687,0.0605 -0.0936,0.1035l-1.1666,2.0217c-0.0249,0.043 -0.0375,0.0868 -0.0383,0.1313c0,0.0444 0.0169,0.0903 0.0514,0.1361c0.0216,0.0266 0.0598,0.0641 0.1153,0.1121c0.0546,0.0484 0.1036,0.0859 0.1466,0.1124l-0.0807,0.1398zm-9.1897,-8.6956l-0.7718,0.5554l-1.6978,-2.065l0.1244,-0.1022c0.0315,0.0334 0.0746,0.0761 0.1301,0.1277c0.0559,0.0523 0.0948,0.0836 0.1173,0.0951c0.0484,0.0224 0.0928,0.0299 0.1329,0.0212c0.0403,-0.0079 0.0815,-0.0299 0.1246,-0.0654l1.7884,-1.4706c0.0383,-0.0313 0.067,-0.0662 0.0866,-0.1033c0.0191,-0.0376 0.0208,-0.0843 0.0065,-0.1406c-0.011,-0.0442 -0.0322,-0.0981 -0.0646,-0.1606c-0.0317,-0.063 -0.0598,-0.1104 -0.0835,-0.1441l0.1246,-0.1022l1.5828,1.9247l-0.5997,0.4931l-0.1082,-0.1318c0.07,-0.0966 0.1221,-0.2247 0.1585,-0.384c0.0359,-0.16 0.03,-0.2794 -0.0186,-0.3566c-0.0251,-0.0405 -0.0569,-0.0867 -0.0958,-0.1388c-0.039,-0.0522 -0.0845,-0.11 -0.1376,-0.1748l-0.3213,-0.3907l-0.989,0.8133l0.2307,0.2807c0.0737,0.0896 0.1368,0.1482 0.1877,0.1757c0.0506,0.0274 0.1093,0.0402 0.1748,0.0395c0.0552,-0.0022 0.1184,-0.017 0.1899,-0.0458c0.0717,-0.0287 0.1349,-0.0606 0.1899,-0.096l0.1084,0.1317l-0.973,0.7998l-0.1082,-0.1316c0.0522,-0.0509 0.101,-0.1121 0.1473,-0.1843c0.0455,-0.0713 0.0732,-0.1303 0.083,-0.1755c0.016,-0.0735 0.0121,-0.1393 -0.0121,-0.1967c-0.0242,-0.0574 -0.0677,-0.1249 -0.1296,-0.2003l-0.2307,-0.2805l-0.7467,0.614c-0.0748,0.0614 -0.1296,0.1157 -0.1643,0.1611c-0.0343,0.0462 -0.0505,0.0936 -0.0475,0.1422c0.0024,0.0481 0.0224,0.1019 0.0594,0.16c0.0372,0.0575 0.0952,0.1352 0.1748,0.2322c0.0316,0.0383 0.0734,0.0891 0.1254,0.1525c0.0518,0.0628 0.0979,0.1142 0.1382,0.1534c0.0411,0.0402 0.0874,0.0795 0.1383,0.1169c0.0514,0.037 0.0957,0.0567 0.1333,0.0598c0.1,0.0069 0.2317,-0.0061 0.3936,-0.0408c0.1631,-0.0349 0.2777,-0.0659 0.345,-0.0941l0.1036,0.1263zm46.8551,8.8691c-0.1695,0.0891 -0.3496,0.1412 -0.54,0.1559c-0.1905,0.0158 -0.3786,-0.0084 -0.5648,-0.0707c-0.1847,-0.0626 -0.3601,-0.1656 -0.5257,-0.3096c-0.1663,-0.1436 -0.3083,-0.3288 -0.4277,-0.5555c-0.1192,-0.2269 -0.1934,-0.4504 -0.221,-0.6722c-0.0281,-0.2208 -0.0156,-0.4306 0.037,-0.6291c0.0514,-0.1954 0.1413,-0.3728 0.2692,-0.5326c0.1275,-0.1586 0.2854,-0.288 0.4733,-0.3869c0.1399,-0.0737 0.276,-0.1234 0.4077,-0.1482c0.132,-0.0249 0.2653,-0.0332 0.4007,-0.0242l0.0106,-0.1791l0.1606,-0.0845l0.5502,1.003l-0.1638,0.0863c-0.0729,-0.0873 -0.1615,-0.1776 -0.2653,-0.2703c-0.1031,-0.0933 -0.2049,-0.1643 -0.3037,-0.2144c-0.1121,-0.0571 -0.2259,-0.0878 -0.3403,-0.093c-0.1151,-0.0049 -0.2299,0.0225 -0.3433,0.082c-0.129,0.068 -0.2349,0.1602 -0.316,0.2763c-0.081,0.1159 -0.1329,0.2513 -0.1552,0.4062c-0.0203,0.1484 -0.0089,0.3176 0.0348,0.5084c0.044,0.1896 0.1198,0.387 0.2281,0.5925c0.0955,0.1818 0.2055,0.3359 0.3317,0.4631c0.1256,0.1276 0.2608,0.2256 0.4067,0.2953c0.145,0.0686 0.2928,0.1041 0.4433,0.1068c0.1507,0.0028 0.298,-0.0337 0.4422,-0.1096c0.1078,-0.0567 0.1987,-0.1264 0.2708,-0.2079c0.0729,-0.082 0.1285,-0.1689 0.1652,-0.2597c0.0359,-0.0939 0.0599,-0.1912 0.0709,-0.2929c0.0115,-0.1009 0.0102,-0.2042 -0.0039,-0.3093l0.1873,-0.0068c0.0334,0.3417 -0.0123,0.623 -0.1386,0.8438c-0.1259,0.2198 -0.3193,0.3991 -0.581,0.5369zm-53.00594,-16.1057l-0.55522,-1.2372l0.14916,-0.0669c0.01795,0.0324 0.04419,0.0792 0.0784,0.1405c0.03379,0.0616 0.06192,0.1013 0.08402,0.1197c0.03545,0.0351 0.07515,0.0543 0.11826,0.0583c0.04296,0.0039 0.09204,-0.006 0.14657,-0.0305l1.06015,-0.4756l-0.6286,-1.4007l-1.03715,0.4653c-0.04884,0.0219 -0.08696,0.0483 -0.11351,0.0792c-0.02622,0.0317 -0.04149,0.0764 -0.04503,0.1358c-0.00238,0.0293 0.00454,0.0772 0.01902,0.144c0.01535,0.0662 0.02962,0.1176 0.04394,0.1532l-0.14921,0.067l-0.55498,-1.2373l0.14903,-0.0669c0.01795,0.0323 0.04408,0.0792 0.07857,0.1404c0.03351,0.0615 0.06184,0.1015 0.08387,0.12c0.03513,0.0341 0.07476,0.0534 0.11826,0.058c0.04307,0.0039 0.09198,-0.0059 0.14642,-0.0304l2.15057,-0.965c0.0446,-0.02 0.0812,-0.0476 0.1104,-0.0822c0.0289,-0.0353 0.0435,-0.0798 0.045,-0.1339c0,-0.046 -0.0033,-0.0993 -0.0137,-0.1591c-0.0097,-0.0603 -0.0229,-0.1104 -0.0376,-0.1511l0.1491,-0.0669l0.5553,1.2372l-0.1492,0.067c-0.0191,-0.0388 -0.0471,-0.0839 -0.0833,-0.1357c-0.037,-0.0514 -0.0659,-0.0893 -0.0885,-0.1128c-0.0388,-0.0404 -0.0809,-0.0592 -0.127,-0.0584c-0.0465,0.0019 -0.0931,0.0133 -0.139,0.0339l-0.924,0.4146l0.6286,1.4008l0.9032,-0.4053c0.0445,-0.02 0.0811,-0.0476 0.1104,-0.0824c0.0288,-0.0353 0.0434,-0.0796 0.0447,-0.1338c0,-0.0459 -0.003,-0.0993 -0.0134,-0.1591c-0.0101,-0.0603 -0.0229,-0.1103 -0.0378,-0.1509l0.1493,-0.067l0.555,1.2372l-0.1492,0.0669c-0.019,-0.0387 -0.0471,-0.084 -0.0832,-0.1357c-0.0369,-0.0514 -0.0658,-0.0894 -0.0884,-0.1127c-0.0387,-0.0404 -0.0809,-0.0593 -0.1267,-0.0578c-0.0469,0.0013 -0.0935,0.0126 -0.1393,0.0332l-2.14849,0.9641c-0.04867,0.0217 -0.08664,0.0483 -0.11304,0.0801c-0.02657,0.0308 -0.04185,0.0754 -0.04538,0.1347c-0.00238,0.0294 0.00454,0.0771 0.01903,0.144c0.01513,0.0664 0.02951,0.1177 0.0438,0.1534l-0.14916,0.0668zm2.55834,2.4388l-0.8495,0.4273l-1.35223,-2.3061l0.13883,-0.0815c0.0259,0.0379 0.0618,0.0869 0.1085,0.1466c0.047,0.0604 0.0805,0.0974 0.1009,0.1124c0.0443,0.0296 0.087,0.0441 0.1279,0.0417c0.0411,-0.0015 0.0852,-0.0167 0.1333,-0.0449l1.9973,-1.1713c0.0428,-0.025 0.0766,-0.0549 0.1018,-0.0884c0.0248,-0.0342 0.0337,-0.08 0.0285,-0.1379c-0.0039,-0.0454 -0.0164,-0.1019 -0.0386,-0.1688c-0.0214,-0.0671 -0.0417,-0.1184 -0.0598,-0.1554l0.1391,-0.0814l1.2607,2.1496l-0.6697,0.3927l-0.0861,-0.1472c0.0842,-0.0844 0.1558,-0.2027 0.2168,-0.3543c0.0606,-0.1524 0.0736,-0.2712 0.0376,-0.3551c-0.0186,-0.044 -0.0426,-0.0945 -0.0729,-0.1521c-0.0302,-0.0576 -0.0661,-0.122 -0.1084,-0.1943l-0.2559,-0.4363l-1.1045,0.6478l0.1837,0.3134c0.0587,0.1001 0.1119,0.1679 0.1578,0.2031c0.0457,0.035 0.1017,0.0569 0.1664,0.0665c0.0549,0.0065 0.1196,0.0017 0.1948,-0.0154c0.0753,-0.0171 0.1427,-0.0387 0.2026,-0.065l0.0864,0.1471l-1.0866,0.637l-0.0863,-0.147c0.0597,-0.0421 0.1175,-0.0949 0.1745,-0.1589c0.0561,-0.0632 0.0929,-0.1172 0.1096,-0.1603c0.0274,-0.0699 0.0339,-0.1356 0.0188,-0.1961c-0.0149,-0.0605 -0.0472,-0.134 -0.0965,-0.2182l-0.1838,-0.3133l-0.8339,0.4891c-0.0835,0.0489 -0.1462,0.0938 -0.1875,0.1333c-0.0412,0.0402 -0.0646,0.0845 -0.0693,0.1329c-0.0052,0.0479 0.0061,0.1042 0.0335,0.1674c0.0277,0.0626 0.0728,0.1485 0.1362,0.2567c0.0251,0.0428 0.0584,0.0996 0.0998,0.1704c0.0413,0.0701 0.0787,0.1281 0.1124,0.1732c0.0343,0.0461 0.0738,0.0922 0.1182,0.1371c0.0449,0.0446 0.0856,0.0711 0.1223,0.0801c0.0976,0.0225 0.2298,0.0304 0.3951,0.0215c0.1665,-0.0088 0.2846,-0.0214 0.3555,-0.0387l0.0827,0.141zm2.8479,1.5436l-0.0964,-0.1401c0.08,-0.0936 0.1485,-0.2203 0.2031,-0.3799c0.0551,-0.1598 0.0619,-0.2819 0.0208,-0.3652c-0.0212,-0.0417 -0.049,-0.0902 -0.0829,-0.1449c-0.0337,-0.0546 -0.0736,-0.1154 -0.12,-0.1827l-0.3054,-0.4439l-1.0635,0.7318l0.2089,0.3037c0.0635,0.0925 0.1221,0.1572 0.1763,0.1949c0.0549,0.0373 0.1144,0.0611 0.1784,0.0696c0.0445,0.0061 0.1029,-0.0004 0.1748,-0.0201c0.0721,-0.0194 0.143,-0.0484 0.2136,-0.0876l0.0976,0.1421l-1.0391,0.715l-0.0977,-0.1422c0.052,-0.0413 0.1052,-0.0965 0.1603,-0.1663c0.0546,-0.0695 0.0887,-0.1276 0.1026,-0.174c0.0205,-0.0684 0.0199,-0.1375 -0.0026,-0.2055c-0.0223,-0.0682 -0.0603,-0.1423 -0.1151,-0.2219l-0.2089,-0.3039l-0.9127,0.628c-0.0413,0.0284 -0.0724,0.061 -0.0936,0.0999c-0.0214,0.0384 -0.0278,0.0849 -0.019,0.14c0.0039,0.0247 0.0212,0.0716 0.0514,0.1428c0.0308,0.0708 0.0562,0.1228 0.0773,0.156l-0.1325,0.0911l-0.7896,-1.1475l0.1324,-0.0911c0.0285,0.0359 0.0665,0.0828 0.1146,0.1407c0.0488,0.0584 0.0834,0.0938 0.1055,0.1066c0.0413,0.0261 0.0844,0.0367 0.1276,0.0315c0.043,-0.0043 0.087,-0.0225 0.1321,-0.0534l1.9104,-1.3144c0.0409,-0.0282 0.0724,-0.0602 0.0949,-0.0954c0.0223,-0.036 0.028,-0.0822 0.0186,-0.1394c-0.0071,-0.0449 -0.0238,-0.1001 -0.0506,-0.1652c-0.0263,-0.0653 -0.0501,-0.1148 -0.0707,-0.1503l0.1325,-0.0912l1.4289,2.0767l-0.6623,0.4557zm1.2783,5.2327l-0.9905,-1.0629l0.118,-0.11c0.0302,0.028 0.0738,0.0678 0.1312,0.1203c0.057,0.0531 0.101,0.0865 0.1315,0.1013c0.0482,0.0231 0.0928,0.0313 0.1337,0.025c0.0402,-0.0068 0.0823,-0.0312 0.1265,-0.0723l1.7094,-1.5931c0.0386,-0.036 0.0655,-0.0718 0.0801,-0.1085c0.0149,-0.0362 0.0095,-0.0853 -0.0147,-0.1476c-0.0182,-0.0457 -0.0443,-0.0987 -0.0793,-0.1604c-0.0358,-0.0611 -0.0676,-0.1088 -0.0955,-0.1433l0.1181,-0.1101l0.9906,1.0629l-0.1182,0.1101c-0.0333,-0.0336 -0.0753,-0.0706 -0.1271,-0.1115c-0.0513,-0.0413 -0.0996,-0.0737 -0.1436,-0.0995c-0.0528,-0.0294 -0.1009,-0.0376 -0.1436,-0.0243c-0.0437,0.0134 -0.0835,0.0378 -0.1199,0.0716l-1.7075,1.5913c-0.0364,0.0339 -0.0612,0.0721 -0.075,0.1145c-0.0134,0.0422 -0.0102,0.0913 0.0093,0.1451c0.0128,0.0318 0.0384,0.0788 0.0774,0.1409c0.038,0.0623 0.0739,0.1125 0.1073,0.1505l-0.1182,0.11zm6.0136,1.3075c-0.0328,-0.0261 -0.0863,-0.0605 -0.1593,-0.1004c-0.0727,-0.0407 -0.1403,-0.0644 -0.2015,-0.073c-0.0618,-0.0067 -0.1354,0.0243 -0.2219,0.0945c-0.0859,0.0706 -0.18,0.1651 -0.2829,0.2856l-0.9126,1.0675c-0.1167,0.1364 -0.2454,0.2308 -0.3881,0.2828c-0.1425,0.052 -0.2871,0.0704 -0.4348,0.0566c-0.1439,-0.0156 -0.2786,-0.0531 -0.403,-0.1124c-0.1242,-0.0591 -0.232,-0.1279 -0.3249,-0.2072c-0.1475,-0.1262 -0.2621,-0.2578 -0.3444,-0.3957c-0.0824,-0.137 -0.135,-0.2718 -0.1568,-0.4051c-0.0214,-0.1318 -0.0152,-0.2562 0.0179,-0.3751c0.0336,-0.1184 0.0894,-0.223 0.1687,-0.3159l1.2413,-1.4519c0.0344,-0.0402 0.056,-0.08 0.0664,-0.1183c0.0101,-0.0382 0.0043,-0.0862 -0.0156,-0.1442c-0.0154,-0.0408 -0.0414,-0.0854 -0.0783,-0.1332c-0.0362,-0.0485 -0.0679,-0.0858 -0.0948,-0.1128l0.1051,-0.123l1.0225,0.8741l-0.1051,0.123c-0.0328,-0.0262 -0.0782,-0.0557 -0.1348,-0.0886c-0.0571,-0.0326 -0.1002,-0.0551 -0.1302,-0.0665c-0.0518,-0.0197 -0.0975,-0.0188 -0.1384,0.0015c-0.0407,0.0212 -0.0776,0.0513 -0.1098,0.0892l-1.1601,1.3568c-0.0559,0.0655 -0.1079,0.1406 -0.1553,0.2249c-0.047,0.0846 -0.0761,0.1763 -0.0867,0.2747c-0.0095,0.1022 0.0074,0.2066 0.0504,0.3129c0.0431,0.1064 0.1317,0.2168 0.2669,0.3325c0.127,0.1087 0.2505,0.1794 0.3705,0.2124c0.1206,0.0337 0.2339,0.0385 0.3402,0.0147c0.1002,-0.0216 0.1889,-0.0582 0.2675,-0.1096c0.0775,-0.0513 0.1458,-0.1116 0.2046,-0.1809l0.8612,-1.0072c0.1094,-0.128 0.19,-0.2402 0.2408,-0.3378c0.0514,-0.0973 0.0697,-0.1737 0.056,-0.2292c-0.016,-0.064 -0.0518,-0.1334 -0.108,-0.2089c-0.0554,-0.0761 -0.101,-0.1304 -0.1362,-0.1647l0.105,-0.1228l1.0037,0.858l0,0.001l0.7275,0.513l0.0641,3.0091l0.8711,-1.2351c0.1065,-0.1513 0.1784,-0.2745 0.2162,-0.3692c0.038,-0.0948 0.0478,-0.1683 0.0299,-0.2212c-0.018,-0.0474 -0.0579,-0.1091 -0.1195,-0.1861c-0.062,-0.0766 -0.1123,-0.1296 -0.1512,-0.1608l0.0917,-0.13l1.0561,0.7447l-0.0917,0.1299c-0.0352,-0.0231 -0.0942,-0.0507 -0.1781,-0.0815c-0.0833,-0.0318 -0.1477,-0.0491 -0.1913,-0.051c-0.066,-0.0006 -0.1368,0.0373 -0.2129,0.1136c-0.0764,0.0753 -0.1613,0.1798 -0.2551,0.3128l-1.3404,1.901l-0.1592,-0.1123l-0.0756,-3.2332l-0.9442,1.3391c-0.1057,0.1497 -0.1777,0.272 -0.2157,0.3658c-0.0381,0.0938 -0.0492,0.1718 -0.0343,0.2329c0.0091,0.0468 0.0496,0.1128 0.1207,0.1974c0.0713,0.0859 0.121,0.1386 0.1483,0.1598l-0.0915,0.1298l-1.0649,-0.7508l0.0917,-0.1298c0.0341,0.0203 0.0981,0.0477 0.1911,0.0814c0.093,0.0338 0.1556,0.0489 0.1873,0.0461c0.0668,-0.0045 0.133,-0.0363 0.1979,-0.0952c0.0655,-0.0584 0.1575,-0.1731 0.2774,-0.3429l0.9014,-1.2784c0.0395,-0.0563 0.0698,-0.1189 0.0895,-0.1893c0.0203,-0.0699 0.0244,-0.1314 0.013,-0.1853c-0.0156,-0.0708 -0.0504,-0.1476 -0.1049,-0.2293c-0.0547,-0.0799 -0.1036,-0.1379 -0.1483,-0.1735l-0.0013,0.0002zm7.1265,4.221c-0.0358,-0.0161 -0.0816,-0.0292 -0.138,-0.0401c-0.0574,-0.0104 -0.1066,-0.0134 -0.149,-0.0095c-0.06,0.0054 -0.1146,0.0239 -0.164,0.0544c-0.0499,0.031 -0.1026,0.07 -0.1602,0.117c-0.1954,0.1692 -0.4962,0.4353 -0.9006,0.7994c-0.4047,0.3632 -0.8245,0.7428 -1.2587,1.1393l-0.1673,-0.083c0.0644,-0.6165 0.1259,-1.2115 0.1847,-1.7836c0.0596,-0.5721 0.0987,-0.9593 0.118,-1.1607c0.0045,-0.0494 0.0021,-0.0964 -0.0106,-0.1417c-0.0113,-0.045 -0.0311,-0.0927 -0.062,-0.1431c-0.0252,-0.0408 -0.0566,-0.0779 -0.0959,-0.1112c-0.0383,-0.0336 -0.0762,-0.0607 -0.1122,-0.082l0.0711,-0.1435l1.184,0.5869l-0.071,0.1433c-0.1033,-0.0443 -0.1933,-0.077 -0.2698,-0.096c-0.0768,-0.0199 -0.1241,-0.0109 -0.1429,0.027c-0.0071,0.0144 -0.0132,0.0338 -0.0177,0.0565c-0.0052,0.0223 -0.0085,0.0411 -0.0102,0.0549c-0.0158,0.157 -0.041,0.4121 -0.077,0.7649c-0.0361,0.3536 -0.088,0.8564 -0.1548,1.5088c0.2262,-0.1985 0.4886,-0.4339 0.7906,-0.7072c0.3009,-0.273 0.5058,-0.4615 0.6138,-0.5651c0.1054,-0.1003 0.1737,-0.1721 0.2037,-0.2155c0.0312,-0.0438 0.0533,-0.0799 0.0681,-0.1097c0.0153,-0.0309 0.0145,-0.0638 -0.0028,-0.0982c-0.0173,-0.0344 -0.0451,-0.0702 -0.0829,-0.108c-0.0383,-0.0353 -0.078,-0.0678 -0.1207,-0.0975c-0.0422,-0.0293 -0.0858,-0.0572 -0.1313,-0.0848l0.071,-0.1433l1.0656,0.528l-0.071,0.1433zm4.9846,5.0072l-0.8452,-0.2395c-0.1041,-0.3468 -0.2015,-0.6485 -0.2928,-0.9055c-0.0904,-0.2565 -0.1918,-0.5235 -0.3041,-0.8009l-0.3211,-0.0911l-0.2823,0.9965c-0.0145,0.0514 -0.019,0.0989 -0.0143,0.1428c0.005,0.043 0.0311,0.0831 0.0789,0.1186c0.0235,0.0181 0.0668,0.0409 0.1309,0.0682c0.0638,0.0279 0.1183,0.049 0.1639,0.0635l-0.0445,0.1572l-1.3278,-0.3763l0.0446,-0.157c0.0362,0.007 0.0891,0.0162 0.1585,0.0277c0.0691,0.0123 0.1188,0.0158 0.1486,0.0111c0.0492,-0.0064 0.0895,-0.0253 0.1197,-0.0567c0.0308,-0.0312 0.054,-0.0752 0.0703,-0.1326l0.6431,-2.2707c0.0149,-0.0522 0.0201,-0.0996 0.0162,-0.1438c-0.003,-0.0442 -0.0293,-0.0842 -0.0777,-0.1199c-0.0331,-0.0242 -0.0782,-0.0501 -0.1341,-0.0773c-0.0557,-0.028 -0.1035,-0.0489 -0.1442,-0.0636l0.0445,-0.1572l1.4496,0.4106c0.1329,0.0376 0.2537,0.0866 0.3622,0.1467c0.1087,0.0602 0.2021,0.1339 0.2792,0.2211c0.0747,0.0849 0.1263,0.1826 0.1537,0.2933c0.0275,0.1105 0.0228,0.2332 -0.0152,0.3676c-0.0343,0.1211 -0.0835,0.2229 -0.147,0.3053c-0.0632,0.0824 -0.1404,0.1471 -0.2313,0.1947c-0.0845,0.0447 -0.1801,0.0771 -0.2862,0.0968c-0.1061,0.0205 -0.2202,0.0308 -0.3409,0.0316c0.0966,0.2493 0.1762,0.4579 0.2392,0.6274c0.0631,0.169 0.1401,0.3752 0.2329,0.6177c0.0397,0.1075 0.0796,0.189 0.1204,0.2464c0.0404,0.0561 0.0826,0.1058 0.1265,0.1466c0.0333,0.0299 0.0766,0.0585 0.1315,0.0855c0.0548,0.0261 0.1007,0.0456 0.1388,0.058l-0.0445,0.1572zm-0.5007,-2.6716c0.0539,-0.1903 0.0422,-0.3558 -0.0358,-0.4987c-0.0772,-0.1419 -0.2162,-0.2417 -0.4149,-0.2978l-0.3762,-0.1066l-0.3817,1.3474l0.29,0.0822c0.2033,0.0575 0.3916,0.0409 0.5639,-0.0516c0.1729,-0.0921 0.2911,-0.2503 0.3547,-0.4749zm3.0058,1.6366c0.0531,0.086 0.0873,0.1766 0.1027,0.2712c0.0153,0.0942 0.0123,0.1996 -0.0096,0.3166c-0.0521,0.2794 -0.1981,0.4896 -0.4378,0.6326c-0.2401,0.1421 -0.5129,0.1848 -0.8183,0.1277c-0.1412,-0.0263 -0.2774,-0.0744 -0.4106,-0.144c-0.1323,-0.0704 -0.2438,-0.1461 -0.3347,-0.2277l-0.126,0.1447l-0.1786,-0.0334l0.1706,-1.0869l0.1807,0.0336c0.0123,0.1408 0.033,0.2694 0.0625,0.3857c0.0301,0.1173 0.0766,0.2297 0.1405,0.3382c0.0612,0.1018 0.1383,0.1885 0.2312,0.26c0.0934,0.071 0.2087,0.1192 0.3446,0.1446c0.1024,0.019 0.1947,0.0221 0.2755,0.0096c0.0817,-0.0121 0.1512,-0.0387 0.2073,-0.0784c0.057,-0.0404 0.1027,-0.0908 0.1379,-0.1526c0.0356,-0.0617 0.0613,-0.1355 0.0774,-0.2214c0.0234,-0.126 0.0097,-0.2503 -0.0414,-0.373c-0.0511,-0.1221 -0.1412,-0.2244 -0.272,-0.3069c-0.0893,-0.0568 -0.1914,-0.1197 -0.3071,-0.1902c-0.1159,-0.0694 -0.2154,-0.1345 -0.2981,-0.1923c-0.1634,-0.1137 -0.2821,-0.2443 -0.3565,-0.3927c-0.0738,-0.148 -0.0916,-0.3265 -0.0526,-0.5353c0.0224,-0.1201 0.0677,-0.2279 0.1357,-0.3229c0.0688,-0.094 0.1557,-0.1735 0.2614,-0.2388c0.1002,-0.0607 0.2132,-0.1023 0.3385,-0.1247c0.1249,-0.0213 0.2513,-0.0208 0.3789,0.0033c0.1457,0.0271 0.2715,0.0733 0.3786,0.1397c0.1064,0.0656 0.2013,0.1375 0.2852,0.2143l0.1194,-0.1341l0.1784,0.0332l-0.178,1.0513l-0.1799,-0.0338c-0.0102,-0.1267 -0.0261,-0.2483 -0.0458,-0.365c-0.0206,-0.1179 -0.055,-0.2274 -0.1038,-0.3283c-0.0478,-0.0978 -0.1123,-0.1813 -0.1948,-0.2493c-0.0824,-0.068 -0.1906,-0.1149 -0.3243,-0.1398c-0.1405,-0.0262 -0.2688,-0.0038 -0.3853,0.0687c-0.1163,0.0719 -0.1869,0.1726 -0.2113,0.3032c-0.0256,0.1366 -0.0149,0.2557 0.0323,0.3572c0.047,0.1017 0.126,0.1925 0.2373,0.273c0.0981,0.0725 0.1961,0.1372 0.2938,0.1947c0.0979,0.0567 0.1912,0.1165 0.2812,0.1774c0.0817,0.0554 0.1593,0.1153 0.2322,0.1794c0.0735,0.0646 0.1343,0.1348 0.1827,0.2116zm5.1524,-0.1827l-0.1577,-0.0111c-0.0102,-0.0564 -0.0297,-0.1229 -0.0603,-0.2012c-0.0305,-0.0773 -0.0653,-0.152 -0.105,-0.2221c-0.041,-0.0736 -0.0867,-0.1381 -0.1368,-0.1949c-0.0501,-0.056 -0.1002,-0.0902 -0.1505,-0.1008c-0.0463,-0.0096 -0.1053,-0.0184 -0.177,-0.0267c-0.0715,-0.0081 -0.1377,-0.0144 -0.1986,-0.0188l-0.1327,-0.0094l-0.1836,2.5948c-0.0036,0.0507 0.0042,0.0974 0.0222,0.1413c0.0181,0.0428 0.0532,0.0782 0.1055,0.1046c0.0265,0.013 0.0825,0.0309 0.1694,0.056c0.0861,0.0241 0.1534,0.0389 0.2024,0.0442l-0.0115,0.1622l-1.5318,-0.1084l0.0114,-0.1623c0.0431,-0.0001 0.1083,-0.0019 0.1972,-0.0042c0.088,-0.0031 0.149,-0.0106 0.1834,-0.0214c0.0521,-0.0168 0.0908,-0.0424 0.1176,-0.0779c0.0261,-0.036 0.0413,-0.085 0.0458,-0.1475l0.1851,-2.6158l-0.1326,-0.0094c-0.0476,-0.0034 -0.1063,-0.0057 -0.1768,-0.0085c-0.0696,-0.0027 -0.1369,-0.0027 -0.2016,0.0006c-0.051,0.0028 -0.1055,0.0287 -0.1631,0.0787c-0.0576,0.0508 -0.112,0.1082 -0.1629,0.1736c-0.0509,0.0655 -0.0958,0.1352 -0.1364,0.2099c-0.0405,0.0747 -0.0692,0.1363 -0.0869,0.1861l-0.1599,-0.0115l0.0622,-0.8803l2.7277,0.1932l0,-0.0002l1.375,0.0261l-0.003,0.1615c-0.1552,0.0001 -0.264,0.0082 -0.3279,0.0256c-0.064,0.0167 -0.0962,0.0415 -0.097,0.0748c-0.0002,0.0095 0.0041,0.0258 0.0124,0.0485c0.0088,0.0226 0.0216,0.0516 0.0371,0.0866c0.0186,0.04 0.0419,0.0855 0.0681,0.1373c0.0262,0.0509 0.0508,0.1003 0.0739,0.1479c0.0689,0.1356 0.1392,0.2721 0.2112,0.4075c0.0712,0.1348 0.1648,0.3114 0.281,0.5291c0.2445,-0.3786 0.4317,-0.6746 0.5606,-0.8863c0.1289,-0.2117 0.1941,-0.3393 0.195,-0.3819c0,-0.0342 -0.0118,-0.0631 -0.0372,-0.0845c-0.0251,-0.0215 -0.0591,-0.0392 -0.1014,-0.0515c-0.0432,-0.0134 -0.0912,-0.022 -0.1423,-0.0269c-0.0518,-0.0049 -0.0991,-0.0097 -0.1434,-0.015l0.0033,-0.1615l1.1208,0.0213l-0.003,0.1614c-0.0265,0.0011 -0.067,0.0102 -0.1239,0.0279c-0.0562,0.0183 -0.097,0.0362 -0.1214,0.0535c-0.0596,0.0353 -0.1005,0.0626 -0.1218,0.0823c-0.0214,0.019 -0.0634,0.0695 -0.1255,0.152c-0.1218,0.1646 -0.2336,0.3308 -0.337,0.5004c-0.1031,0.1693 -0.2323,0.3844 -0.3877,0.6452c-0.0576,0.0958 -0.0964,0.1727 -0.1153,0.2322c-0.0196,0.0584 -0.0299,0.1437 -0.0321,0.2562l-0.0114,0.6157c-0.0022,0.0544 0.0088,0.1019 0.0297,0.1426c0.0209,0.0399 0.0582,0.0733 0.1106,0.0983c0.0316,0.013 0.088,0.029 0.17,0.0475c0.081,0.0195 0.1466,0.0299 0.1972,0.0325l-0.003,0.1613l-1.5095,-0.0287l0.003,-0.1612c0.0427,-0.0024 0.1064,-0.0067 0.1919,-0.0134c0.0847,-0.0071 0.1438,-0.0167 0.1775,-0.0293c0.0547,-0.0223 0.0933,-0.0525 0.1142,-0.0917c0.0208,-0.0384 0.0328,-0.0871 0.0338,-0.1446l0.015,-0.7842c0,-0.0239 -0.0134,-0.0684 -0.0418,-0.1334c-0.0289,-0.065 -0.0626,-0.1378 -0.1022,-0.2169c-0.0874,-0.1778 -0.1846,-0.3697 -0.2908,-0.5756c-0.107,-0.207 -0.2,-0.3842 -0.2787,-0.5307c-0.0487,-0.0879 -0.0916,-0.1531 -0.1297,-0.1981c-0.038,-0.0448 -0.0814,-0.0844 -0.1304,-0.1189c-0.0361,-0.023 -0.0791,-0.0409 -0.1301,-0.0543c-0.0162,-0.0044 -0.0321,-0.0081 -0.0474,-0.0114l-0.0506,0.712zm6.915,1.5021c0.0733,-0.1453 0.1223,-0.3068 0.1468,-0.4841c0.0244,-0.1781 0.0268,-0.3747 0.0089,-0.5901c-0.0186,-0.2215 -0.0564,-0.4236 -0.1154,-0.6048c-0.0589,-0.1822 -0.135,-0.3349 -0.2299,-0.4584c-0.0939,-0.1221 -0.2072,-0.2137 -0.3391,-0.2754c-0.1321,-0.0618 -0.2795,-0.0856 -0.4418,-0.0722c-0.1821,0.0152 -0.3333,0.07 -0.4538,0.1638c-0.1206,0.0939 -0.2154,0.2146 -0.2847,0.3612c-0.0643,0.1399 -0.108,0.3008 -0.1303,0.4828c-0.0225,0.1826 -0.0255,0.3723 -0.0091,0.5697c0.0182,0.2184 0.0549,0.4142 0.1091,0.5865c0.0536,0.1733 0.1288,0.3244 0.2256,0.4541c0.0926,0.1268 0.2048,0.2224 0.3356,0.2874c0.1304,0.065 0.283,0.0898 0.4555,0.0756c0.1623,-0.0136 0.3061,-0.0639 0.4304,-0.1509c0.1243,-0.0862 0.2221,-0.2015 0.2922,-0.3452z" clip-rule="evenodd"/><path id="svg_2" fill="#1B1918" fill-rule="evenodd" d="m11.0895,31.3673c-0.0588,-0.5521 -0.0793,-1.0996 -0.3821,-1.6116c-0.0411,-0.0695 -0.0655,-0.1075 -0.082,-0.1848l-0.1191,-0.5605c-0.124,-0.7061 -0.3471,-1.3339 -0.55678,-1.9724c-0.1995,-0.672 -0.57233,-0.88 -0.89166,-1.2208c-0.34726,-0.6587 -0.76642,-1.2409 -0.91333,-2.0873c0.00368,-0.1929 0.29951,-0.4867 0.45032,-0.5537c0.7062,0.1883 1.18153,0.533 1.61615,0.9507c0.0884,0.085 0.4587,0.1592 0.5621,0.2258c0.4938,-0.237 1.087,-0.4393 1.8043,-0.6036c0.239,-0.0548 0.4793,-0.1529 0.7469,-0.1992c0.6888,-0.6965 1.6947,-1.9227 2.0853,-1.839c0.3341,0.0532 0.4737,0.3173 0.4192,0.7919c-0.2202,0.569 -0.5192,1.2165 -0.9175,1.7564c-0.1307,0.1771 -0.1687,0.1853 -0.3872,0.2494c-0.5647,0.166 -1.1239,0.3526 -1.6684,0.5933l-0.1695,0.0699l-0.1441,-0.0464l-0.179,0.0346l-0.1373,0.1194l-0.3137,0.0234c-0.8326,-0.017 -1.2457,0.2831 -1.1526,0.9657l0.0063,0.4485c0.0021,0.1269 0.1398,0.227 0.2067,0.3462l0.1354,0.2702l-0.0077,0.2066l0.1604,0.2476l0.1088,0.4062l-0.0374,0.2116c0.0749,0.1679 0.1344,0.3264 0.1397,0.4506l0.0322,0.612c0.068,0.1983 0.1155,0.4113 0.1835,0.6147l0.0527,0.0815c0.032,0.0426 0.0455,0.0853 0.041,0.1277l-0.0052,0.1274c-0.003,0.0732 0.0537,0.0963 0.1123,0.1349c0.049,0.0324 0.0489,0.0411 0.0553,0.0948l0.0237,0.1969l0.0294,0.18l-0.1448,0.2323l-0.1293,0.1493l-0.1096,0.0826l-0.1432,0.0277l-0.0989,-0.018c-0.1561,-0.0175 -0.2638,0.0313 -0.2813,-0.1325zm1.5174,-4.2629l-0.187,0.1316l-0.339,-0.1256l-0.1294,-0.2754l-0.0522,-0.1947l-0.0514,-0.1403l0.0451,-0.0906l0.0208,-0.1815l0.0452,-0.0907c0.1267,-0.27 0.2672,-0.4882 0.4041,-0.7197l0.2287,0.024l0.2237,0.1616l0.1474,0.1353l0.0348,0.1298l0.0945,0.1456l0.0057,0.1765l0.0382,0.1427l-0.0249,0.1141l-0.0452,0.0907l-0.068,0.1087l-0.0611,0.1347l0.0521,0.1947l0.0348,0.1298l0.0418,0.1559l-0.0855,0.0437l-0.1439,-0.1223l-0.2293,-0.0786zm0.299,0.857l0.1682,-0.0462l0.5007,-0.6701l0.0771,-0.1788l0.0235,-0.223l0.0417,-0.1037l0.0742,-0.1372l0.2355,-0.2093l0.2016,-0.0253l0.2425,0.076l0.239,0.063l0.2238,0.1616l0.3072,0.2137l0.0647,0.1377l0.1876,0.1823l0.1113,0.1559l0.0744,0.1222l0.0285,0.1583c-0.0859,0.2026 -0.2064,0.396 -0.4028,0.5694l-0.0737,-0.0677l-0.0965,0.2098l0.0778,0.1351l0.0085,0.1349l-0.0611,0.1348l-0.1181,0.0774c-0.379,0.1232 -0.8445,0.113 -1.3494,0.0423l-0.253,-0.115l-0.2578,-0.2369l-0.0897,-0.0236l-0.0897,-0.2831l-0.096,-0.2545zm1.0491,-0.23l0.0152,-0.0986l0.0451,-0.0906l0.0716,-0.0958l0.0653,-0.0672l0.1021,-0.0334l0.1897,0.0863l0.0938,0.091l-0.0179,0.14l0.0348,0.1298l0.0112,0.0935l-0.0681,0.1087l-0.0472,-0.0728l-0.0618,0.0803l-0.0924,0.0178l-0.1432,-0.0678l-0.1168,-0.0731l-0.0814,-0.1481z" clip-rule="evenodd"/><path id="svg_3" fill="#1B1918" fill-rule="evenodd" d="m22.6355,18.6516l-0.1683,-0.1792l-0.1733,-0.2235l-0.1784,-0.2679l-0.1798,-0.2053l-0.2817,-0.3342l-0.1401,-0.3143l-0.1337,-0.3324l0.0143,-0.3307l0.0147,-0.0989l-0.0884,-0.1652l0.0661,-0.1816l-0.0702,-0.1571l0.0514,-0.0829l-0.0869,-0.2276l-0.0136,-0.1956l-0.1185,-0.1995l-0.1001,-0.1913l-0.0701,-0.1572l-0.1301,-0.2255l-0.1666,-0.2417l-0.1667,-0.2416l-0.1083,-0.1108l0.033,-0.0907l-0.2099,-0.2396l-0.1418,-0.2518l-0.0934,-0.2095l-0.087,-0.2277c0,0 -0.0883,-0.9234 -0.017,-1.0606c0.0712,-0.1373 0.5094,-0.4083 0.5094,-0.4083l0.0177,-0.2239c0.1883,-0.2649 0.381,-0.4449 0.5842,-0.4387l0.1676,-0.0528l0.213,0.1146l0.2033,0.2577l0.0869,0.2277l-0.028,0.1352l0.0071,0.2137l0.19,0.294l0.1916,0.2316l0.0819,0.1833l0.0035,0.1069l0.1967,0.2758l0.1966,0.2759l0.027,0.1593l0.6281,0.7811l0.0138,0.1956l0.1651,0.3042l0.2049,0.1952l0.2545,0.112c0.1676,0.0362 0.3096,0.1776 0.4,0.3046c0.2354,0.3312 0.2873,0.8908 0,0.8183l-0.2379,-0.1044l-0.2378,-0.1044l-0.306,-0.0922l-0.1215,-0.0744l0.0128,-0.2682l-0.1484,-0.2336l-0.125,-0.1813l-0.218,-0.1589l-0.216,0.0106l-0.2044,0.0366l-0.1129,0.0769l-0.066,0.1815l-0.0311,0.2602l0.0605,0.3004l0.0071,0.2137l0.1052,0.2358l0.3131,0.3058l0.027,0.1593l0.0436,0.2298l0.0453,0.1673l0.0217,0.1149l0.2217,0.2657l-0.0097,0.1432l0.0716,0.0946l-0.1408,0.2121l-0.033,0.0907l-0.0463,0.1272l-0.0162,0.1613l0.0238,0.2842l-0.0777,0.1555l-0.1752,0.071zm0.7607,-5.4539l-0.2752,-0.0128l-0.0938,-0.0412l-0.1683,-0.1355l-0.1295,-0.242c-0.0124,-0.4037 0.0388,-0.7542 0.1744,-1.0343l0.1549,-0.4256l0.222,-0.3964c0.1636,-0.2098 0.3477,-0.333 0.5347,-0.4441l0.3503,-0.1085l0.3272,-0.1365c0.3915,-0.0942 0.4385,0.2255 0.4346,0.5634l0.0763,0.3883l0.0531,0.4091l0.0469,0.2982l0.0345,0.2467l-0.1307,0.3591l-0.003,0.3072l-0.0846,0.3178l-0.1065,0.2926l0.0249,0.2733c0.2272,0.429 0.527,0.6016 0.8995,0.5182l0.372,-0.2534l0.5018,-0.3968c0.207,-0.1559 0.3943,-0.3562 0.6014,-0.5122l0.3259,-0.2842l0.1482,-0.1509c0.0184,-0.1073 0.0114,-0.2008 -0.0498,-0.2639l-0.051,-0.2278l-0.3113,-0.3834l-0.1061,-0.0929l-0.1351,-0.013l-0.0622,-0.0427l-0.144,-0.2021l0.0361,-0.1848l0.1448,-0.0135l0.2364,0.1191l0.1024,0.0604l0.1769,0.1548l0.1474,0.0647l0.1731,0.1223l0.1876,0.0824l0.2108,0.0615c0.3181,-0.0154 0.5202,0.2418 0.4831,0.5516l0.0272,0.1816l-0.1929,0.3165l-0.1225,0.2084l-0.1418,0.2617l-0.1263,0.1761l-0.3184,0.2768l-0.1775,0.0609l-0.1691,0.0801l-0.2604,0.1172l-0.1298,0.1435l-0.1631,0.021l-0.191,0.055l-0.1884,0.1334l-0.1702,0.1258l-0.2614,0.1629l-0.2152,0.1215l-0.1885,0.1334l-0.1652,0.1126l-0.2436,-0.0144l-0.2155,-0.0483l-0.1877,-0.0823l-0.1425,-0.078l-0.1721,-0.1681l-0.2159,-0.2182l-0.1173,-0.1903l-0.1,-0.1519l-0.1769,-0.1549l-0.1001,-0.1519l-0.0577,-0.2259l-0.0588,-0.18l-0.1292,-0.0721l-0.1195,-0.0988l-0.1388,-0.0455zm-0.0326,-1.6188l0.1076,0.2169l0.0964,0.1195l0.1303,0.0263l0.1742,0.0765l0.0961,-0.0504l0.1389,0.0455l0.1652,-0.1126l0.1144,-0.0578l0.0521,-0.1006l-0.0819,-0.1593l-0.1049,-0.1386l-0.1012,-0.1062l-0.1657,-0.0573l-0.1545,0.0402l-0.1277,0.0519l-0.1412,0.0461l-0.1326,0.0653l-0.0655,0.0946zm0.2092,1.0483l0.2029,-0.1732l0.1339,0.0588l0.1861,0.0531l0.0779,0.0761l0.2015,0.0443l0.1097,0.1253l0.0247,0.1033l-0.0388,0.1064l-0.0425,0.074l-0.1254,-0.0397l-0.1024,-0.0604l-0.0912,0.0372l-0.1207,-0.053l-0.0572,-0.056l-0.0987,-0.0279l-0.0927,-0.087l-0.1671,-0.1813zm-1.6972,1.3418l-0.119,0.0113l-0.0319,0.0878l0.0451,0.1215l0.117,0.0641l0.091,-0.0745l0.0571,0.0886l0.11,0.0483l0.083,-0.0526l0.124,-0.06l0.0549,-0.1158l0.0509,-0.1048l-0.0052,-0.0913l-0.1161,-0.1018l-0.094,0.0478l-0.1211,-0.0532l-0.1019,0.0697l-0.1438,0.1149zm-0.7987,-1.6462l-0.181,0.0891l-0.0646,0.1191l-0.0529,0.1452l0.0204,0.1775l0.0767,0.1389l0.0219,0.115l0.1997,0.1508l0.1332,0.1006l0.2144,0.052l0.118,-0.0326l0.123,0.0119l0.1027,-0.1654l0.0396,-0.1091l-0.0269,-0.1591l-0.0401,-0.1231l-0.15,-0.171l-0.0716,-0.0946l-0.0899,-0.1028l-0.1215,-0.0744l-0.1164,-0.03l-0.1347,-0.038z" clip-rule="evenodd"/><path id="svg_4" fill="#1B1918" fill-rule="evenodd" d="m36.3994,6.76797l0.2852,-0.19684l0.1798,-0.08834l0.2305,-0.14931l0.1798,-0.08835l0.2255,-0.07351l0.2385,-0.12231l0.1673,-0.08416l0.2881,-0.0939l0.0716,-0.08277c0.5681,-0.16866 1.0726,-0.31438 1.6338,-0.35445c0.2114,-0.01507 0.3778,0.22105 0.3064,0.55317l-0.0281,0.27638l-0.0537,0.32917l-0.1051,0.10856l-0.2095,0.12763l-0.0972,0.13556l-0.1639,0.14246l-0.0687,0.1857l-0.0811,0.18976l-0.0521,0.19509l-0.0862,0.26559l-0.1775,0.23601l-0.1377,0.04493l-0.1138,0.12611l-0.2379,0.07755l-0.1218,0.09903l-0.1308,0.1614l-0.0471,0.11923l-0.1177,0.11267l0.031,0.19768l0.0021,0.19229l0.1583,-0.0219l0.3127,-0.05736l0.271,-0.05863l0.1964,-0.0789l0.2004,-0.06534l0.2054,-0.14122l0.1298,-0.07191l0.2756,-0.08984l0.2003,-0.06531l0.1753,-0.05717l0.1378,-0.04493l0.1583,-0.02196c0.5508,-0.01055 1.2403,0.00815 1.2354,0.74029l-0.16,0.15602l-0.1337,0.05846l-0.2505,0.08166l-0.1999,0.02058l-0.1958,0.03414l-0.1538,-0.00919l-0.233,0.00173l-0.1413,-0.01325l-0.2695,-0.07546l-0.1829,-0.01457l-0.1788,-0.00108l-0.2455,0.00588l-0.0626,0.02041l-0.1663,-0.0051l-0.2836,0.06272l-0.1708,0.02597l-0.1367,-0.04446l-0.0511,0.10569l-0.2296,0.05997l-0.0956,0.00152l-0.2961,0.06691l-0.242,0.06402l-0.1753,0.05717l-0.1002,0.03267l-0.0386,0.10157l-0.2205,-0.0023l-0.1172,0.0679l-0.1513,0.1384l-0.2004,0.0654c-0.0087,0.1785 -0.1008,0.3468 -0.3758,0.4936l-0.1673,0.0841l-0.1503,0.049l-0.1669,0.0396l-0.1913,0.003l-0.2159,-0.0335l-0.1414,-0.0133l-0.1492,-0.0404l-0.1493,-0.0404l-0.1067,-0.1285l-0.0355,-0.1665l-0.0391,-0.2248l0.1103,-0.1844l0.1138,-0.1261l0.284,-0.10748l0.1628,-0.05307l0.2255,-0.07352l0.1252,-0.04082l0.2085,-0.03822l0.1753,-0.05717l0.1127,-0.03675l0.2796,-0.07637l0.1918,-0.04769l0.1303,-0.11665l0.1343,-0.10321l0.0937,-0.19377l0.0141,-0.13818l0.0351,-0.1599l0.0722,-0.12741l0.0846,-0.1315l0.0973,-0.13561l0.006,-0.16527l0.0677,-0.09625l0.0346,-0.11513l-0.1282,-0.06212l-0.0913,-0.02968l-0.0825,-0.04724l-0.0998,-0.01207l-0.1042,0.01911l-0.1868,-0.02812l-0.1869,-0.02811l-0.1488,-0.08512l-0.1031,-0.07025l-0.1027,-0.11498l-0.0321,-0.10832l-0.0149,-0.14356l-0.0361,-0.12185l0.0137,-0.09347l0.006,-0.16516l-0.0114,-0.0854l0.0546,-0.09232z" clip-rule="evenodd"/><path id="svg_5" fill="#1B1918" fill-rule="evenodd" d="m50.855,7.07909l0.0485,-0.14043l0.0768,-0.16961l0.1239,-0.09323l0.1026,-0.17701l-0.1087,-0.07911l0.0175,-0.09543l0.01,-0.13472l0.0931,-0.16369l0.0322,-0.14635l0.2477,-0.18651c0.174,-0.06172 0.3456,-0.04533 0.5147,0.04904l0.2133,-0.13976l0.0682,-0.40988l0.0155,-0.31052c0.3026,-0.46951 0.5678,-0.68905 0.7958,-0.65883c0.2764,-0.05738 0.5421,-0.01321 0.7976,0.13224l0.092,0.21134l-0.0114,0.35153l0.0511,0.1174l0.0147,0.22274l0.167,0.10032l0.1076,-0.09918l0.2598,-0.22159l0.2943,-0.26831c0.3194,-0.35255 0.7079,-0.36699 0.8068,-0.30142c0.1272,0.08435 0.1924,0.42189 0.0816,0.95545l0.0998,0.09323l0.2397,0.10341l0.263,0.05831c0.0721,0.14481 0.1202,0.28608 0.0931,0.38156c-0.0449,0.15913 -0.2245,0.3684 -0.547,0.27247l-0.6185,-0.06703c-0.2926,0.15712 -0.3302,0.35426 -0.1125,0.59137l0.3337,0.0424l0.1833,0.10625l0.1954,0.07113l0.2197,0.00086l0.2117,0.07706c0.1442,0.15735 -0.0806,0.69975 -0.3344,0.69593l-0.203,-0.04188l-0.1383,0.02873l-0.9033,-0.09167c-0.0621,0.31225 0.0368,0.66827 -0.2756,0.64951c-0.6184,-0.037 -1.1184,0.42934 -0.8433,0.99829c-0.0432,0.45263 -0.2364,0.6501 -0.5942,0.8262c-0.0773,0.038 -0.1267,0.1537 -0.2151,0.1914c-0.0714,0.0303 -0.2014,0.3039 -0.2675,0.3491c-0.269,1.1353 0.1993,1.9585 -0.7312,1.7682c-0.1383,-0.0285 -0.182,-0.0496 -0.2804,-0.1512l-0.3686,-0.3805l-0.1552,-0.2936l-0.1792,-0.0652l-0.3094,-0.1126c-0.0815,-0.0537 -0.1573,-0.1823 -0.2208,-0.4756l0.1254,-0.31l0.2537,-0.2041c0.3102,-0.0114 0.5656,0.0508 0.5965,0.2369l-0.0947,0.0464l-0.0492,0.1581l-0.042,0.2811l0.1651,0.1589l0.2587,0.1534l0.2022,0.0341l0.1148,-0.1558l0.1318,-0.1694c0.085,-0.1931 0.0032,-0.3282 0.005,-0.4922l-0.2565,-0.0538l-0.1283,-0.106c-0.1145,-0.1331 -0.1129,-0.2502 0.0054,-0.351l0.3329,-0.257c0.0993,-0.12861 0.1578,-0.35115 0.1754,-0.66731l-0.1144,-0.19971l-0.0432,-0.19355l-0.1223,-0.12356l-0.1367,-0.18808l0.0238,-0.22844l0.0667,-0.1931l0.1522,-0.12242l0.1258,-0.15182l0.2053,-0.06361l0.2522,0.01278c0.0388,0.06465 0.1417,0.06106 0.1615,0.12274c0.13,0.40416 0.1224,0.62497 0.6653,0.29675l0.1769,-0.03442l0.3719,-0.12151l0.2356,-0.15139l0.2318,-0.03418l0.1727,-0.07546l0.01,-0.13474l-0.1792,-0.06521l-0.1526,-0.03578l-0.122,0.03466l-0.1954,-0.07113l-0.1629,-0.05929l-0.2257,0.01665l-0.1303,-0.04743l-0.1383,0.02873l-0.128,0.05219l-0.826,-0.10304l-0.8688,-0.1384l-0.2235,0.11626l-0.2867,0.03396l-0.1203,0.04616c-0.0538,0.00307 -0.109,0.0477 -0.1614,0.00941l-0.1577,-0.0574l-0.2462,-0.03032l-0.2783,0.11604c-0.0544,0.05219 -0.1036,0.06441 -0.1569,0.06145l-0.1889,-0.06876l-0.1057,0.04059c-1.197,0.23082 -1.5363,0.22554 -1.343,-0.13794c0.0795,-0.14955 0.4797,-0.28298 0.8706,-0.31865c0.2343,-0.02143 0.3662,-0.04434 0.6118,0.05284l0.2094,-0.02257l0.2421,-0.0107l0.2583,-0.00478l0.2522,0.01275l0.1606,-0.04034l0.1074,-0.09913zm2.8522,4.00181l-0.1252,-0.0217l-0.0809,0.0423l-0.0625,0.0849l-0.0884,-0.0322l-0.184,-0.0431l-0.0983,-0.0357l-0.0907,0.0387l-0.0404,0.1168l-0.0268,0.1099l-0.0306,0.1204l-0.0205,0.124l-0.0097,0.0922l-0.0257,0.0743l-0.0736,0.021l0.0603,0.1775l0.1364,0.1812l0.1486,0.1138l0.1485,0.0182l0.0772,-0.0317l0.1104,-0.0316l0.0478,-0.0423l0.0846,-0.0529l0.0798,-0.0069l0.0636,-0.1203l0.1029,-0.1061l0.0417,-0.0566l0.044,-0.1275l-0.0026,-0.1205l0.033,-0.0956l-0.0688,-0.1207l-0.086,-0.1031l-0.01,-0.0992l-0.0541,-0.0675zm-2.4454,-4.07952l0.1356,-0.06611l0.1772,-0.02897l0.1099,-0.05282l0.3073,0.02449l-0.0428,0.26289l-0.1786,-0.00521l-0.2197,-0.00087l-0.1322,0.01116l-0.1233,-0.03377l-0.0334,-0.11079zm2.049,-0.45116l-0.0288,-0.12903l0.0485,-0.14043l0.0829,-0.18717l0.1076,-0.09917l0.1341,-0.06975l0.1424,0.0123l0.1303,0.04744l0.0572,0.09984l-0.0364,0.10534l-0.0485,0.14043l-0.0935,0.00547l-0.0466,0.08183l-0.0485,0.14043l-0.1382,0.10415l-0.1402,0.01189l-0.1223,-0.12357z" clip-rule="evenodd"/><path id="svg_6" fill="#1B1918" fill-rule="evenodd" d="m63.6869,11.8692l0.6478,0.2359l0.2788,0.0296l0.1678,0.1258l0.3282,-0.0497l0.3273,-0.0513l0.2551,-0.2588c0.336,-0.2872 0.7044,-0.5188 1.1046,-0.6947c0.2936,-0.1291 0.5232,-0.1409 0.6024,0.263c0.0569,0.2899 -0.0869,0.6634 -0.3843,1.239c-0.0037,0.1437 0.0555,0.2463 0.1777,0.3077c0.1658,0.1264 0.3499,0.219 0.2923,0.4305c-0.061,0.2236 -0.2988,0.5473 -1.0185,0.526l-0.4236,-0.0923c-0.1445,-0.0857 -0.2589,-0.0717 -0.3695,-0.0043c-0.1703,0.1039 -0.193,0.2616 -0.2405,0.4383c0.1508,0.9766 0.4089,1.83 0.6987,2.7161c0.0784,0.2003 0.1946,0.3718 0.3259,0.5301c0.0579,0.0697 0.1162,0.0946 0.196,0.1347c0.1794,0.0897 0.2905,0.1606 0.3096,0.312c0.0221,0.1752 -0.0944,0.2642 -0.2117,0.2732c-0.1379,0.0106 -0.1773,-0.0013 -0.3034,-0.0467c-0.2869,-0.1274 -0.572,-0.2867 -0.8568,-0.4496l-0.1629,-0.1997l-0.2172,-0.3761l-0.0567,-0.2219l-0.1678,-0.6204l-0.0123,-0.3923l-0.0692,-0.2845l-0.0296,-0.2161l-0.0296,-0.2162l-0.0123,-0.3922l-0.0765,-0.2562l-0.1184,-0.2051l-0.3208,-0.1436l-0.0988,0.1588l-0.148,0.0732l-1.219,0.4437l-0.4294,0.163l-0.343,0.1065l-0.4294,-0.0019l-0.1826,-0.069l-0.3011,-0.2742l-0.0666,-0.4039c0.2,-0.2549 0.2007,-0.2718 0.459,-0.1117l0.1505,-0.0277l0.1826,0.069l0.1752,-0.0675l0.1555,0.0632l0.1678,-0.039l0.0864,-0.0565l0.1258,0.0119l0.2147,0.0009l0.1505,-0.0278l0.1728,-0.1129l0.2196,-0.0729l0.1752,-0.0675c0.2412,-0.1421 0.3198,-0.3427 0.1037,-0.5623l-0.4442,-0.2748l-0.1827,-0.2339l0.0346,-0.1874l0.0395,-0.2613l0.0518,-0.1987l0.1407,-0.2098l0.111,-0.0961l0.2973,-0.1236z" clip-rule="evenodd"/><path id="svg_7" fill="#1B1918" fill-rule="evenodd" d="m76.2972,23.9056c0.0837,-0.0989 0.0964,-0.2045 0.3411,-0.2863l0.501,-0.37l0.1292,-0.0266l0.1089,-0.0287l0.2112,-0.1388l0.1629,0.0174l0.1223,0.013l0.1222,0.013l0.0879,0.09l0.1973,-0.0596l0.1181,0.1537l0.0879,0.09l0.0332,0.1649l-0.0314,0.1781l-0.0826,0.2331l-0.1193,0.0882l-0.1769,0.0618l-0.1502,0.1453l-0.0517,0.1759c0.1631,0.2133 0.3227,0.2101 0.4789,-0.0094l0.1496,-0.0244l0.1222,0.013l0.1531,-0.0442l0.2037,0.0217l0.0879,0.0901l0.2502,0.2282l0.06,0.2484l0.0059,0.2022l-0.028,0.1584l-0.0244,0.1385l0.1013,0.1318l0.1595,0.0371c0.2446,0.2194 0.8348,0.0472 1.1496,0.0116c0.4842,0.0802 0.4992,0.4991 0.1541,0.8331l-0.1734,0.042l-0.0582,0.0946l-0.1298,0.1475l-0.0384,0.2177l-0.4155,0.238c-0.5422,0.0692 -0.4619,-0.206 -1.0651,-0.3152l-0.2723,0.1323l-0.0279,0.1584l-0.1397,0.0859l-0.1332,0.1673l-0.1095,0.1496l0.0024,0.2221l0.145,0.2372l-0.0454,0.2573l0.0158,0.2638c-0.4323,0.5488 -0.8885,0.7421 -1.3968,0.1536l-0.0274,-0.1798l-0.1542,-0.2025l-0.1147,-0.1735l-0.1251,-0.1142l-0.0804,-0.2505c0.0564,-0.5111 0.4937,-0.0069 0.5465,0.0784l0.1898,0.1009l0.1501,-0.1453l-0.0024,-0.2221c-0.0997,-0.6122 -0.4043,-1.0816 -1.0407,-1.1594l-0.3032,0.1895l-0.1988,0.3038l-0.3955,0.2556l-0.2041,0.2024l-0.0657,0.2551l-0.0419,0.2375l-0.0244,0.1385l0.0605,0.1275l-0.0966,0.3123l0.0262,0.2044l0.0746,0.2589c-0.083,0.3388 -0.2575,0.4564 -0.4409,0.5482c-0.4416,0.2212 -0.4864,0.0286 -0.642,-0.2156c-0.2435,-0.1775 -0.5943,-0.3596 -0.9481,-0.3259c-0.2657,-0.0618 -0.5166,-0.2063 -0.7638,-0.374l-0.2345,-0.3151c-0.1052,-0.1923 -0.2925,-0.3578 -0.3313,-0.6249c-0.0242,-0.1662 0.0834,-0.3264 0.192,-0.4709c0.2648,-0.3638 0.4771,-0.4293 0.5733,0.1619c-0.0125,0.1691 -0.0235,0.3292 0.1518,0.489l0.0793,0.201c0.2898,0.2235 0.5207,0.2887 0.6216,0.0058c0.0752,-0.4783 -0.1278,-0.8594 -0.4087,-1.2131c-0.1517,-0.1238 -0.2216,-0.2185 -0.1007,-0.313c0.1033,-0.1175 0.3152,-0.0817 0.5261,0.1366l0.2532,0.3294c0.1511,0.1242 0.3256,0.1158 0.5232,-0.0249l0.4667,-0.293l0.2107,-0.0179l0.1804,-0.0816l0.021,-0.1187l-0.0501,-0.1868l0.0314,-0.1782l0.1094,-0.1496l0.1595,0.0372c0.1658,0.0045 0.2094,-0.1254 0.1711,-0.2641l-0.2573,-0.1887l-0.1629,-0.0174l-0.1729,-0.0789l-0.1316,-0.1955l-0.1321,-0.0745l-0.227,-0.1251l-0.1356,-0.0547l-0.1862,-0.1207l-0.2171,-0.0634l-0.0809,-0.1297l-0.2037,-0.0217l-0.0978,-0.1515c-0.2211,0.0156 -0.2451,-0.0146 -0.3661,-0.1458c-0.2505,-0.2715 -0.5023,-0.5897 -0.4552,-0.7281c-0.0783,-0.2036 0.1172,-0.2781 0.587,-0.2242c0.2634,0.0302 0.3691,0.3225 0.524,0.5141l0.198,0.1722l0.1146,0.1735l0.1764,0.0591l0.1624,0.1383l0.1862,0.1207l0.2136,0.0832l0.1554,0.1779l0.2136,0.0832l0.252,-0.1344l0.2043,-0.0992l0.1501,-0.1453l0.1571,-0.1849l0.1059,-0.1299l0.1099,-0.2705zm0.9022,1.3236l-0.194,-0.3201l-0.131,0.0329l-0.0883,0.0092l-0.1829,-0.0008l-0.1174,0.1746l0.0327,0.0877l-0.0446,0.0889l-0.0243,0.1377l-0.0665,0.0491l0.036,0.0694l-0.0162,0.0918l0.1159,0.1621l0.0753,0.0642l0.1281,-0.0706l0.1169,-0.0624l0.0729,-0.0858l0.0676,0.054l0.071,-0.0206l0.0918,-0.0837l0.0257,-0.0909l0.0823,-0.0848l-0.0198,-0.1051l-0.0312,-0.0968zm0.7066,0.2531l0.0711,-0.0205l0.101,-0.0266l0.0851,0.009l0.0661,0.0071l0.0881,0.0468l0.08,0.0927l0.0389,0.1071l0,0.1123l-0.0195,0.1102l-0.0905,0.1307l-0.027,0.0439l-0.1123,0.091l-0.0586,0.0593l-0.0757,-0.0081l-0.0883,0.0093l-0.0613,-0.0346l-0.0608,-0.1469l-0.0989,-0.0947l-0.0391,-0.051l0.0207,-0.0633l0.0177,-0.101l0.0227,-0.1286l0.0492,-0.0603l0.0914,-0.0838z" clip-rule="evenodd"/><path id="svg_8" fill="#AE1623" fill-rule="evenodd" d="m44,12.4539c15.4231,0 28.2624,11.0746 31.0032,25.7032l-0.3032,0c-2.7369,-14.4631 -15.4419,-25.4055 -30.7,-25.4055c-15.2578,0 -27.9629,10.9424 -30.6997,25.4055l-0.3032,0c2.7407,-14.6286 15.5801,-25.7032 31.0029,-25.7032zm29.3911,43.0218c-4.5914,11.7462 -16.0207,20.0693 -29.3911,20.0693c-13.3702,0 -24.7994,-8.3231 -29.3908,-20.0693l0.3194,0c4.5757,11.5783 15.8685,19.7716 29.0714,19.7716c13.2032,0 24.496,-8.1933 29.0717,-19.7716l0.3194,0z" clip-rule="evenodd"/><path id="svg_9" fill="#AE1623" fill-rule="evenodd" d="m72.6854,39.5134l-1.5293,0l0,1.0606l1.5293,0l0,-1.0606zm-1.8572,1.5755l15.9141,0l0,10.7331l-15.9141,0l0,2.2738l14.7107,0l0,0.3312l-82.76879,0l0,-0.3312l14.37059,0l0,-2.2738l-15.90828,0l0,-10.7331l15.90828,0l0,-2.5108l-15.17611,0l0,-0.7185l15.17611,0l-0.038,-3.8668l-0.4759,0l0,-0.9405l16.0966,0l0,-0.6882l0,-0.3206l0.3207,0l4.5386,0l0.222,0l0.0986,0l0,1.0088l12.1821,0l0,-0.6882l0,-0.3206l0.3207,0l4.5386,0l0.222,0l0.0987,0l0,1.0088l16.0767,0l0,0.9405l-0.5139,0l0,3.8668l15.388,0l0,0.7185l-15.388,0l0,2.5108zm-55.5997,8.789l1.5294,0l0,1.0607l-1.5294,0l0,-1.0607zm-2.6784,0l1.5294,0l0,1.0607l-1.5294,0l0,-1.0607zm-2.67842,0l1.52932,0l0,1.0607l-1.52932,0l0,-1.0607zm-2.67849,0l1.52933,0l0,1.0607l-1.52933,0l0,-1.0607zm-2.67846,0l1.52932,0l0,1.0607l-1.52932,0l0,-1.0607zm-2.67846,0l1.5293,0l0,1.0607l-1.5293,0l0,-1.0607zm13.39223,-2.5912l1.5294,0l0,1.0607l-1.5294,0l0,-1.0607zm-2.6784,0l1.5294,0l0,1.0607l-1.5294,0l0,-1.0607zm-2.67842,0l1.52932,0l0,1.0607l-1.52932,0l0,-1.0607zm-2.67849,0l1.52933,0l0,1.0607l-1.52933,0l0,-1.0607zm-2.67846,0l1.52932,0l0,1.0607l-1.52932,0l0,-1.0607zm-2.67846,0l1.5293,0l0,1.0607l-1.5293,0l0,-1.0607zm13.39223,-2.591l1.5294,0l0,1.0606l-1.5294,0l0,-1.0606zm-2.6784,0l1.5294,0l0,1.0606l-1.5294,0l0,-1.0606zm-2.67842,0l1.52932,0l0,1.0606l-1.52932,0l0,-1.0606zm-2.67849,0l1.52933,0l0,1.0606l-1.52933,0l0,-1.0606zm-2.67846,0l1.52932,0l0,1.0606l-1.52932,0l0,-1.0606zm-2.67846,0l1.5293,0l0,1.0606l-1.5293,0l0,-1.0606zm13.39223,-2.5912l1.5294,0l0,1.0607l-1.5294,0l0,-1.0607zm-2.6784,0l1.5294,0l0,1.0607l-1.5294,0l0,-1.0607zm-2.67842,0l1.52932,0l0,1.0607l-1.52932,0l0,-1.0607zm-2.67849,0l1.52933,0l0,1.0607l-1.52933,0l0,-1.0607zm-2.67846,0l1.52932,0l0,1.0607l-1.52932,0l0,-1.0607zm-2.67846,0l1.5293,0l0,1.0607l-1.5293,0l0,-1.0607zm15.63553,-5.495l15.6262,0l0,-2.6167l-15.6641,0l0.0379,2.6167zm15.9574,0l3.7684,0l0,-2.6167l-3.7684,0l0,2.6167zm4.0996,0l12.9313,0l0,-2.6167l-12.9313,0l0,2.6167zm13.2624,0l3.7684,0l0,-2.6167l-3.7684,0l0,2.6167zm4.0996,0l15.6062,0l0,-2.6167l-15.6062,0l0,2.6167zm15.6062,12.204l-15.6062,0l0,5.2823l15.6062,0l0,-5.2823zm-15.9374,0l-3.7718,0l0,5.2823l3.7718,0l0,-5.2823zm-4.304,0l-3.8205,0l0,5.2823l0.4961,0l0,-1.9901l2.7133,0l0,1.9901l0.6111,0l0,-5.2823zm-4.3527,0l-3.8205,0l0,5.2823l0.5815,0l0,-1.9901l2.7133,0l0,1.9901l0.5257,0l0,-5.2823zm-4.3527,0l-3.8204,0l0,5.2823l0.6669,0l0,-1.9901l2.7133,0l0,1.9901l0.4402,0l0,-5.2823zm-4.3526,0l-3.7684,0l0,5.2823l3.7684,0l0,-5.2823zm-4.0996,0l-15.6262,0l0,5.2823l15.6262,0l0,-5.2823zm23.6235,0.8176l-1.5293,0l0,1.3075l1.5293,0l0,-1.3075zm-53.95139,6.2151l0,-0.547l82.76879,0l0,0.547l-82.76879,0zm12.45839,-3.3772l1.5294,0l0,1.0606l-1.5294,0l0,-1.0606zm-2.6784,0l1.5294,0l0,1.0606l-1.5294,0l0,-1.0606zm-2.67842,0l1.52932,0l0,1.0606l-1.52932,0l0,-1.0606zm-2.67849,0l1.52933,0l0,1.0606l-1.52933,0l0,-1.0606zm-2.67846,0l1.52932,0l0,1.0606l-1.52932,0l0,-1.0606zm-2.67846,0l1.5293,0l0,1.0606l-1.5293,0l0,-1.0606zm51.60373,-0.3633l-1.5293,0l0,1.3075l1.5293,0l0,-1.3075zm-17.362,0l-1.5293,0l0,1.3075l1.5293,0l0,-1.3075zm-3.2297,0l-1.5293,0l0,1.3075l1.5293,0l0,-1.3075zm-2.6784,0l-1.5293,0l0,1.3075l1.5293,0l0,-1.3075zm-2.6785,0l-1.5293,0l0,1.3075l1.5293,0l0,-1.3075zm-2.6785,0l-1.5293,0l0,1.3075l1.5293,0l0,-1.3075zm-2.6784,0l-1.5294,0l0,1.3075l1.5294,0l0,-1.3075zm-2.6784,0l-1.5294,0l0,1.3075l1.5294,0l0,-1.3075zm37.2654,0l-1.5293,0l0,1.3075l1.5293,0l0,-1.3075zm2.6784,0l-1.5293,0l0,1.3075l1.5293,0l0,-1.3075zm2.6785,0l-1.5294,0l0,1.3075l1.5294,0l0,-1.3075zm2.6784,0l-1.5293,0l0,1.3075l1.5293,0l0,-1.3075zm2.6785,0l-1.5293,0l0,1.3075l1.5293,0l0,-1.3075zm2.6785,0l-1.5294,0l0,1.3075l1.5294,0l0,-1.3075zm2.5716,0.3633l-1.5293,0l0,1.0606l1.5293,0l0,-1.0606zm2.6784,0l-1.5293,0l0,1.0606l1.5293,0l0,-1.0606zm2.6785,0l-1.5293,0l0,1.0606l1.5293,0l0,-1.0606zm2.6784,0l-1.5293,0l0,1.0606l1.5293,0l0,-1.0606zm2.6785,0l-1.5293,0l0,1.0606l1.5293,0l0,-1.0606zm2.6785,0l-1.5293,0l0,1.0606l1.5293,0l0,-1.0606zm-66.6216,-2.8379l-1.5294,0l0,1.3075l1.5294,0l0,-1.3075zm2.6784,0l-1.5294,0l0,1.3075l1.5294,0l0,-1.3075zm2.6784,0l-1.5293,0l0,1.3075l1.5293,0l0,-1.3075zm2.6785,0l-1.5293,0l0,1.3075l1.5293,0l0,-1.3075zm2.6785,0l-1.5293,0l0,1.3075l1.5293,0l0,-1.3075zm2.6784,0l-1.5293,0l0,1.3075l1.5293,0l0,-1.3075zm3.2297,0l-1.5293,0l0,1.3075l1.5293,0l0,-1.3075zm2.3187,0l2.7133,0l0,1.238l-2.7133,0l0,-1.238zm4.2672,0l2.7133,0l0,1.238l-2.7133,0l0,-1.238zm4.2673,0l2.7133,0l0,1.238l-2.7133,0l0,-1.238zm12.4687,0l-1.5293,0l0,1.3075l1.5293,0l0,-1.3075zm2.6785,0l-1.5294,0l0,1.3075l1.5294,0l0,-1.3075zm2.6784,0l-1.5293,0l0,1.3075l1.5293,0l0,-1.3075zm2.6785,0l-1.5293,0l0,1.3075l1.5293,0l0,-1.3075zm2.6785,0l-1.5294,0l0,1.3075l1.5294,0l0,-1.3075zm-16.6738,0l-1.5293,0l0,1.3075l1.5293,0l0,-1.3075zm-38.2115,-10.1177l1.5294,0l0,1.0606l-1.5294,0l0,-1.0606zm-2.6784,0l1.5294,0l0,1.0606l-1.5294,0l0,-1.0606zm-2.67842,0l1.52932,0l0,1.0606l-1.52932,0l0,-1.0606zm-2.67849,0l1.52933,0l0,1.0606l-1.52933,0l0,-1.0606zm-2.67846,0l1.52932,0l0,1.0606l-1.52932,0l0,-1.0606zm-2.67846,0l1.5293,0l0,1.0606l-1.5293,0l0,-1.0606zm53.10843,-6.4611l0,-0.6882l-4.5386,0l0,0.6882l4.5386,0zm-17.362,0l0,-0.6882l-4.5386,0l0,0.6882l4.5386,0zm15.8573,1.8031l-1.5293,0l0,1.0607l1.5293,0l0,-1.0607zm3.3053,0l-1.5293,0l0,1.0607l1.5293,0l0,-1.0607zm2.664,0l-1.5293,0l0,1.0607l1.5293,0l0,-1.0607zm2.664,0l-1.5294,0l0,1.0607l1.5294,0l0,-1.0607zm2.6639,0l-1.5293,0l0,1.0607l1.5293,0l0,-1.0607zm2.664,0l-1.5293,0l0,1.0607l1.5293,0l0,-1.0607zm2.664,0l-1.5293,0l0,1.0607l1.5293,0l0,-1.0607zm-23.134,0l2.7133,0l0,1.0607l-2.7133,0l0,-1.0607zm-4.2673,0l2.7133,0l0,1.0607l-2.7133,0l0,-1.0607zm-4.2672,0l2.7133,0l0,1.0607l-2.7133,0l0,-1.0607zm-3.848,0l1.5293,0l0,1.0607l-1.5293,0l0,-1.0607zm-3.3053,0l1.5293,0l0,1.0607l-1.5293,0l0,-1.0607zm-2.6639,0l1.5293,0l0,1.0607l-1.5293,0l0,-1.0607zm-2.664,0l1.5293,0l0,1.0607l-1.5293,0l0,-1.0607zm-2.664,0l1.5293,0l0,1.0607l-1.5293,0l0,-1.0607zm-2.664,0l1.5294,0l0,1.0607l-1.5294,0l0,-1.0607zm-2.6639,0l1.5293,0l0,1.0607l-1.5293,0l0,-1.0607zm57.4402,4.658l-1.5293,0l0,1.0606l1.5293,0l0,-1.0606zm2.6785,0l-1.5293,0l0,1.0606l1.5293,0l0,-1.0606zm2.6784,0l-1.5293,0l0,1.0606l1.5293,0l0,-1.0606zm2.6785,0l-1.5293,0l0,1.0606l1.5293,0l0,-1.0606zm2.6785,0l-1.5293,0l0,1.0606l1.5293,0l0,-1.0606zm-68.1541,6.9872l1.5293,0l0,1.0606l-1.5293,0l0,-1.0606zm2.6639,0l1.5294,0l0,1.0606l-1.5294,0l0,-1.0606zm2.664,0l1.5293,0l0,1.0606l-1.5293,0l0,-1.0606zm2.664,0l1.5293,0l0,1.0606l-1.5293,0l0,-1.0606zm2.664,0l1.5293,0l0,1.0606l-1.5293,0l0,-1.0606zm2.6639,0l1.5293,0l0,1.0606l-1.5293,0l0,-1.0606zm3.3053,0l1.5293,0l0,1.0606l-1.5293,0l0,-1.0606zm3.848,0l2.7133,0l0,1.0606l-2.7133,0l0,-1.0606zm4.2672,0l2.7133,0l0,1.0606l-2.7133,0l0,-1.0606zm4.2673,0l2.7133,0l0,1.0606l-2.7133,0l0,-1.0606zm23.134,0l-1.5293,0l0,1.0606l1.5293,0l0,-1.0606zm-2.664,0l-1.5293,0l0,1.0606l1.5293,0l0,-1.0606zm-2.664,0l-1.5293,0l0,1.0606l1.5293,0l0,-1.0606zm-2.6639,0l-1.5294,0l0,1.0606l1.5294,0l0,-1.0606zm-2.664,0l-1.5293,0l0,1.0606l1.5293,0l0,-1.0606zm-2.664,0l-1.5293,0l0,1.0606l1.5293,0l0,-1.0606zm-3.3053,0l-1.5293,0l0,1.0606l1.5293,0l0,-1.0606zm0,-2.8628l-1.5293,0l0,1.0607l1.5293,0l0,-1.0607zm3.3053,0l-1.5293,0l0,1.0607l1.5293,0l0,-1.0607zm2.664,0l-1.5293,0l0,1.0607l1.5293,0l0,-1.0607zm2.664,0l-1.5294,0l0,1.0607l1.5294,0l0,-1.0607zm2.6639,0l-1.5293,0l0,1.0607l1.5293,0l0,-1.0607zm2.664,0l-1.5293,0l0,1.0607l1.5293,0l0,-1.0607zm2.664,0l-1.5293,0l0,1.0607l1.5293,0l0,-1.0607zm-23.134,0l2.7133,0l0,1.0607l-2.7133,0l0,-1.0607zm-4.2673,0l2.7133,0l0,1.0607l-2.7133,0l0,-1.0607zm-4.2672,0l2.7133,0l0,1.0607l-2.7133,0l0,-1.0607zm-3.848,0l1.5293,0l0,1.0607l-1.5293,0l0,-1.0607zm-3.3053,0l1.5293,0l0,1.0607l-1.5293,0l0,-1.0607zm-2.6639,0l1.5293,0l0,1.0607l-1.5293,0l0,-1.0607zm-2.664,0l1.5293,0l0,1.0607l-1.5293,0l0,-1.0607zm-2.664,0l1.5293,0l0,1.0607l-1.5293,0l0,-1.0607zm-2.664,0l1.5294,0l0,1.0607l-1.5294,0l0,-1.0607zm-2.6639,0l1.5293,0l0,1.0607l-1.5293,0l0,-1.0607zm0,-2.8627l1.5293,0l0,1.0606l-1.5293,0l0,-1.0606zm2.6639,0l1.5294,0l0,1.0606l-1.5294,0l0,-1.0606zm2.664,0l1.5293,0l0,1.0606l-1.5293,0l0,-1.0606zm2.664,0l1.5293,0l0,1.0606l-1.5293,0l0,-1.0606zm2.664,0l1.5293,0l0,1.0606l-1.5293,0l0,-1.0606zm2.6639,0l1.5293,0l0,1.0606l-1.5293,0l0,-1.0606zm3.3053,0l1.5293,0l0,1.0606l-1.5293,0l0,-1.0606zm3.848,0l2.7133,0l0,1.0606l-2.7133,0l0,-1.0606zm4.2672,0l2.7133,0l0,1.0606l-2.7133,0l0,-1.0606zm4.2673,0l2.7133,0l0,1.0606l-2.7133,0l0,-1.0606zm23.134,0l-1.5293,0l0,1.0606l1.5293,0l0,-1.0606zm-2.664,0l-1.5293,0l0,1.0606l1.5293,0l0,-1.0606zm-2.664,0l-1.5293,0l0,1.0606l1.5293,0l0,-1.0606zm-2.6639,0l-1.5294,0l0,1.0606l1.5294,0l0,-1.0606zm-2.664,0l-1.5293,0l0,1.0606l1.5293,0l0,-1.0606zm-2.664,0l-1.5293,0l0,1.0606l1.5293,0l0,-1.0606zm-3.3053,0l-1.5293,0l0,1.0606l1.5293,0l0,-1.0606zm-35.5164,-2.8628l1.5293,0l0,1.0606l-1.5293,0l0,-1.0606zm2.6639,0l1.5294,0l0,1.0606l-1.5294,0l0,-1.0606zm2.664,0l1.5293,0l0,1.0606l-1.5293,0l0,-1.0606zm2.664,0l1.5293,0l0,1.0606l-1.5293,0l0,-1.0606zm2.664,0l1.5293,0l0,1.0606l-1.5293,0l0,-1.0606zm2.6639,0l1.5293,0l0,1.0606l-1.5293,0l0,-1.0606zm3.3053,0l1.5293,0l0,1.0606l-1.5293,0l0,-1.0606zm3.848,0l2.7133,0l0,1.0606l-2.7133,0l0,-1.0606zm4.2672,0l2.7133,0l0,1.0606l-2.7133,0l0,-1.0606zm4.2673,0l2.7133,0l0,1.0606l-2.7133,0l0,-1.0606zm23.134,0l-1.5293,0l0,1.0606l1.5293,0l0,-1.0606zm-2.664,0l-1.5293,0l0,1.0606l1.5293,0l0,-1.0606zm-2.664,0l-1.5293,0l0,1.0606l1.5293,0l0,-1.0606zm-2.6639,0l-1.5294,0l0,1.0606l1.5294,0l0,-1.0606zm-2.664,0l-1.5293,0l0,1.0606l1.5293,0l0,-1.0606zm-2.664,0l-1.5293,0l0,1.0606l1.5293,0l0,-1.0606zm-3.3053,0l-1.5293,0l0,1.0606l1.5293,0l0,-1.0606zm19.2454,11.9656l-1.5293,0l0,1.0607l1.5293,0l0,-1.0607zm2.6784,0l-1.5293,0l0,1.0607l1.5293,0l0,-1.0607zm2.6785,0l-1.5293,0l0,1.0607l1.5293,0l0,-1.0607zm2.6784,0l-1.5293,0l0,1.0607l1.5293,0l0,-1.0607zm2.6785,0l-1.5293,0l0,1.0607l1.5293,0l0,-1.0607zm2.6785,0l-1.5293,0l0,1.0607l1.5293,0l0,-1.0607zm-13.3923,-2.5912l-1.5293,0l0,1.0607l1.5293,0l0,-1.0607zm2.6784,0l-1.5293,0l0,1.0607l1.5293,0l0,-1.0607zm2.6785,0l-1.5293,0l0,1.0607l1.5293,0l0,-1.0607zm2.6784,0l-1.5293,0l0,1.0607l1.5293,0l0,-1.0607zm2.6785,0l-1.5293,0l0,1.0607l1.5293,0l0,-1.0607zm2.6785,0l-1.5293,0l0,1.0607l1.5293,0l0,-1.0607zm-13.3923,-2.591l-1.5293,0l0,1.0606l1.5293,0l0,-1.0606zm2.6784,0l-1.5293,0l0,1.0606l1.5293,0l0,-1.0606zm2.6785,0l-1.5293,0l0,1.0606l1.5293,0l0,-1.0606zm2.6784,0l-1.5293,0l0,1.0606l1.5293,0l0,-1.0606zm2.6785,0l-1.5293,0l0,1.0606l1.5293,0l0,-1.0606zm2.6785,0l-1.5293,0l0,1.0606l1.5293,0l0,-1.0606zm-13.3923,-2.5912l-1.5293,0l0,1.0607l1.5293,0l0,-1.0607zm2.6784,0l-1.5293,0l0,1.0607l1.5293,0l0,-1.0607zm2.6785,0l-1.5293,0l0,1.0607l1.5293,0l0,-1.0607zm2.6784,0l-1.5293,0l0,1.0607l1.5293,0l0,-1.0607zm2.6785,0l-1.5293,0l0,1.0607l1.5293,0l0,-1.0607zm2.6785,0l-1.5293,0l0,1.0607l1.5293,0l0,-1.0607z" clip-rule="evenodd"/><path id="svg_10" fill="#AE1623" fill-rule="evenodd" d="m43.9999,0c24.2966,0 44.0001,19.7035 44.0001,44c0,24.2965 -19.7035,44 -44.0001,44c-24.2964,0 -43.9999,-19.7035 -43.9999,-44c0,-24.2965 19.7035,-44 43.9999,-44zm0,1.96219c23.2129,0 42.0379,18.82501 42.0379,42.03781c0,23.2129 -18.825,42.0379 -42.0379,42.0379c-23.2129,0 -42.03782,-18.825 -42.03782,-42.0379c0,-23.2128 18.82492,-42.03781 42.03782,-42.03781z" clip-rule="evenodd"/><path id="svg_11" fill="#AE1623" fill-rule="evenodd" d="m37.8473,60.9138l-3.1774,0l0,-0.3317l3.1774,0l0,0.3317zm1.6695,1.6585l-0.641,0l0,-2.758l-0.836,0l0,-0.2485c0.3341,0 0.5944,-0.049 0.78,-0.1451c0.1866,-0.0966 0.307,-0.2415 0.3627,-0.4351l0.3343,0l0,3.5867zm3.3407,-1.8247c0,0.5669 -0.1349,1.0197 -0.4044,1.3585c-0.269,0.3384 -0.6551,0.5078 -1.157,0.5078c-0.352,0 -0.636,-0.0967 -0.8491,-0.2901c-0.2136,-0.1938 -0.321,-0.4078 -0.321,-0.6422l0.6409,0c0,0.1379 0.0514,0.2628 0.1534,0.3733c0.1022,0.1105 0.2367,0.1653 0.4045,0.1653c0.2782,0 0.4876,-0.1176 0.6266,-0.3528c0.139,-0.2353 0.2282,-0.5803 0.265,-1.0368c-0.0927,0.1522 -0.2236,0.2698 -0.3899,0.3521c-0.1675,0.0829 -0.3531,0.1247 -0.5577,0.1247c-0.3533,0 -0.6415,-0.0962 -0.8646,-0.2901c-0.2225,-0.1932 -0.3341,-0.4697 -0.3341,-0.8297c0,-0.3589 0.1116,-0.6496 0.3341,-0.8703c0.2231,-0.2214 0.5577,-0.3317 1.0037,-0.3317c0.4459,0 0.7991,0.1382 1.0596,0.4148c0.2601,0.276 0.39,0.7253 0.39,1.3472zm-0.6968,-0.4769c0,-0.3042 -0.0704,-0.5317 -0.2093,-0.6836c-0.139,-0.152 -0.3294,-0.2283 -0.5709,-0.2283c-0.1676,0 -0.3164,0.0585 -0.4458,0.176c-0.1296,0.1176 -0.1951,0.3352 -0.1951,0.6528c0,0.2353 0.0514,0.4184 0.1533,0.5493c0.1023,0.1316 0.2641,0.1972 0.4876,0.1972c0.2415,0 0.4319,-0.0619 0.5709,-0.1865c0.139,-0.1247 0.2093,-0.2831 0.2093,-0.4769zm4.1302,1.3888l-0.5851,0l0,0.9128l-0.6409,0l0,-0.9128l-1.8671,0l0,-0.3936l1.8671,-2.2803l0.6409,0l0,2.2803l0.5851,0l0,0.3936zm-1.226,-0.3936l0,-1.5338l-1.2546,1.5338l1.2546,0zm4.3264,0.0212c0,0.4148 -0.1345,0.7395 -0.4045,0.9739c-0.2685,0.2352 -0.6266,0.3529 -1.0725,0.3529c-0.3911,0 -0.7111,-0.0964 -0.9619,-0.2901c-0.251,-0.1937 -0.3854,-0.4564 -0.4044,-0.7881l0.641,0c0,0.2078 0.0655,0.3733 0.1949,0.4979c0.1297,0.1247 0.3163,0.1866 0.5579,0.1866c0.2413,0 0.4316,-0.076 0.5707,-0.2282c0.1392,-0.1521 0.2093,-0.3874 0.2093,-0.7049c0,-0.2768 -0.0607,-0.4811 -0.1807,-0.612c-0.1213,-0.1319 -0.2831,-0.1973 -0.4877,-0.1973c-0.1675,0 -0.3114,0.0274 -0.4316,0.083c-0.1212,0.0549 -0.2365,0.1522 -0.3484,0.2903l-0.5576,0l0.1675,-1.8239l2.3961,0l0,0.3935l-1.8658,0l-0.1128,0.9536c0.1117,-0.0831 0.2319,-0.1451 0.3627,-0.1867c0.1296,-0.0415 0.3066,-0.0619 0.5291,-0.0619c0.3532,0 0.6408,0.0999 0.8646,0.3007c0.2222,0.2008 0.3341,0.4874 0.3341,0.8607zm3.888,-0.3733l-3.1775,0l0,-0.3317l3.1775,0l0,0.3317z" clip-rule="evenodd"/></g></svg>